<svg id="svg" version="1.1" xmlns="http://www.w3.org/2000/svg" xmlns:xlink="http://www.w3.org/1999/xlink" width="400" height="322.5806451612903" viewBox="0, 0, 400,322.5806451612903"><g id="svgg"><path id="path0" d="M313.043 14.839 C 313.043 19.185,313.088 20.964,313.144 18.790 C 313.200 16.617,313.200 13.060,313.144 10.887 C 313.088 8.714,313.043 10.492,313.043 14.839 M109.601 22.809 C 110.002 22.886,110.582 22.883,110.891 22.802 C 111.199 22.722,110.871 22.658,110.161 22.662 C 109.452 22.666,109.199 22.732,109.601 22.809 M289.562 22.829 C 289.478 22.965,289.978 23.022,290.672 22.956 C 291.367 22.890,291.935 22.778,291.935 22.708 C 291.935 22.468,289.716 22.580,289.562 22.829 M287.224 25.295 C 287.128 25.546,287.101 26.163,287.165 26.666 C 287.259 27.412,287.310 27.328,287.439 26.210 C 287.602 24.799,287.531 24.496,287.224 25.295 M34.516 26.774 C 34.516 26.952,34.274 27.097,33.978 27.097 C 29.940 27.097,28.047 28.319,27.417 31.334 C 27.181 32.463,26.831 33.491,26.639 33.617 C 26.393 33.780,26.290 44.506,26.290 70.230 L 26.290 106.613 27.249 107.661 C 27.777 108.238,28.382 108.710,28.593 108.710 C 28.805 108.710,29.027 108.837,29.086 108.993 C 29.311 109.585,33.032 109.690,53.248 109.675 C 74.324 109.659,77.229 109.797,77.839 110.846 C 77.980 111.090,78.289 111.290,78.525 111.290 C 79.594 111.290,79.752 113.006,79.591 122.870 C 79.482 129.544,79.541 132.638,79.781 132.878 C 79.973 133.069,80.022 133.226,79.892 133.226 C 79.037 133.226,81.889 135.220,83.147 135.502 C 86.678 136.294,103.235 135.781,103.871 134.861 C 103.960 134.733,104.797 134.381,105.732 134.079 C 108.427 133.210,108.710 132.831,108.710 130.090 C 108.710 128.740,108.847 127.742,109.032 127.742 C 109.238 127.742,109.355 124.936,109.355 119.969 C 109.355 109.046,108.339 109.988,120.415 109.713 C 126.616 109.572,129.124 109.407,129.296 109.128 C 129.428 108.915,130.136 108.644,130.871 108.526 C 131.681 108.397,132.469 108.011,132.875 107.544 C 133.243 107.120,133.677 106.774,133.839 106.774 C 134.001 106.774,134.237 106.012,134.364 105.081 C 134.490 104.149,134.758 103.284,134.958 103.157 C 135.210 102.998,135.354 100.210,135.426 94.122 L 135.529 85.317 134.727 84.137 C 134.287 83.487,134.010 82.871,134.114 82.768 C 134.217 82.665,134.132 82.581,133.925 82.581 C 133.718 82.581,133.230 82.263,132.842 81.874 C 132.152 81.184,131.903 81.164,122.116 81.028 L 112.097 80.889 111.106 79.874 C 109.585 78.318,109.355 76.767,109.355 68.083 C 109.355 63.044,109.240 60.323,109.027 60.323 C 108.847 60.323,108.713 59.923,108.729 59.435 C 108.768 58.264,107.764 55.485,107.300 55.479 C 107.100 55.476,107.153 55.333,107.419 55.161 C 107.830 54.896,107.816 54.848,107.323 54.844 C 107.003 54.841,106.314 54.617,105.790 54.347 C 105.060 53.969,104.838 53.950,104.834 54.266 C 104.830 54.561,104.745 54.545,104.534 54.211 C 104.165 53.629,102.941 53.551,94.265 53.561 C 86.086 53.570,83.634 53.026,83.559 51.187 C 83.553 51.041,83.331 50.704,83.065 50.438 C 82.665 50.038,82.577 48.711,82.562 42.800 C 82.535 32.125,82.446 31.507,80.533 28.649 C 80.028 27.895,78.403 27.168,77.652 27.361 C 77.514 27.396,77.313 27.194,77.204 26.911 C 77.044 26.495,76.950 26.479,76.705 26.828 C 76.468 27.164,76.367 27.170,76.239 26.855 C 76.029 26.337,34.516 26.256,34.516 26.774 M323.992 26.924 C 323.896 27.174,323.610 27.299,323.356 27.202 C 323.103 27.104,322.702 27.185,322.466 27.380 C 322.230 27.576,321.942 27.641,321.825 27.524 C 321.708 27.407,321.613 27.490,321.613 27.707 C 321.613 27.925,321.475 28.017,321.307 27.913 C 321.138 27.809,320.902 28.250,320.781 28.894 C 320.641 29.638,320.470 29.917,320.312 29.660 C 320.014 29.178,320.051 28.393,319.833 39.839 C 319.641 49.950,319.477 50.949,317.861 51.820 C 317.263 52.141,316.774 52.507,316.774 52.631 C 316.774 53.192,312.750 53.531,305.069 53.617 C 298.092 53.695,296.702 53.788,296.451 54.194 C 296.287 54.460,296.002 54.696,295.818 54.718 C 295.634 54.740,295.344 54.776,295.174 54.798 C 294.643 54.867,293.548 56.223,293.548 56.812 C 293.548 57.121,293.320 57.601,293.041 57.880 C 292.661 58.261,292.641 58.388,292.961 58.392 C 293.292 58.396,293.285 58.462,292.930 58.687 C 292.553 58.925,292.483 60.309,292.532 66.504 C 292.592 74.059,292.207 77.705,291.316 78.002 C 291.124 78.066,290.963 78.288,290.957 78.495 C 290.899 80.512,288.995 80.932,279.423 81.037 C 273.354 81.103,270.877 81.237,270.709 81.509 C 270.580 81.718,269.902 81.935,269.202 81.993 C 267.783 82.109,266.893 82.801,266.585 84.027 C 266.472 84.477,266.251 84.925,266.093 85.022 C 265.085 85.645,266.051 105.065,267.108 105.430 C 267.279 105.489,267.419 105.806,267.419 106.134 C 267.419 106.471,267.736 106.829,268.145 106.957 C 268.544 107.082,268.944 107.280,269.032 107.399 C 269.121 107.517,269.919 107.886,270.806 108.219 C 271.693 108.552,272.611 109.016,272.845 109.251 C 273.172 109.577,274.918 109.682,280.265 109.697 C 288.735 109.720,289.798 109.869,291.290 111.237 L 292.419 112.273 292.513 122.427 C 292.591 130.829,292.684 132.581,293.055 132.581 C 293.301 132.581,293.694 132.762,293.929 132.984 C 294.163 133.206,295.126 133.650,296.069 133.972 C 297.012 134.294,298.064 134.838,298.408 135.182 C 298.941 135.715,310.899 136.241,313.611 135.851 C 313.734 135.833,314.894 135.797,316.189 135.770 C 318.486 135.723,320.000 135.332,320.000 134.787 C 320.000 134.638,320.218 134.516,320.484 134.516 C 320.750 134.516,320.968 134.298,320.968 134.032 C 320.968 133.766,321.113 133.548,321.290 133.548 C 321.470 133.548,321.613 132.688,321.613 131.613 C 321.613 130.282,321.739 129.676,322.016 129.672 C 322.285 129.669,322.258 129.563,321.935 129.355 C 321.505 129.077,321.505 129.041,321.935 129.032 C 322.366 129.023,322.366 128.987,321.935 128.705 C 321.505 128.422,321.505 128.352,321.935 128.069 C 322.366 127.787,322.366 127.751,321.935 127.742 C 321.539 127.734,321.531 127.682,321.891 127.453 C 322.263 127.218,322.263 127.147,321.891 126.999 C 321.531 126.855,321.539 126.762,321.935 126.481 C 322.264 126.249,322.290 126.137,322.016 126.134 C 321.707 126.130,321.613 124.589,321.613 119.516 C 321.613 115.323,321.731 112.903,321.935 112.903 C 322.113 112.903,322.263 112.649,322.269 112.339 C 322.319 109.716,323.009 109.646,348.472 109.679 C 360.756 109.695,371.112 109.641,371.486 109.559 C 372.393 109.360,373.871 107.961,373.871 107.302 C 373.871 107.012,374.007 106.774,374.174 106.774 C 375.376 106.774,374.440 30.731,373.221 29.255 C 373.046 29.044,372.627 28.510,372.290 28.068 C 371.742 27.352,371.396 27.253,369.064 27.147 C 367.627 27.082,366.452 26.897,366.452 26.736 C 366.452 26.200,324.198 26.387,323.992 26.924 M287.193 31.290 C 287.193 32.266,287.254 32.665,287.328 32.177 C 287.402 31.690,287.402 30.891,287.328 30.403 C 287.254 29.915,287.193 30.315,287.193 31.290 M131.213 48.615 C 131.615 48.692,132.195 48.689,132.504 48.609 C 132.812 48.528,132.484 48.465,131.774 48.468 C 131.065 48.472,130.812 48.538,131.213 48.615 M134.839 48.667 C 134.839 48.822,135.298 48.894,135.860 48.829 C 137.318 48.659,137.417 48.387,136.022 48.387 C 135.371 48.387,134.839 48.513,134.839 48.667 M263.718 48.696 C 263.603 48.882,264.006 48.944,264.726 48.852 C 266.326 48.647,266.520 48.387,265.073 48.387 C 264.433 48.387,263.823 48.526,263.718 48.696 M269.113 48.618 C 269.601 48.692,270.399 48.692,270.887 48.618 C 271.375 48.544,270.976 48.484,270.000 48.484 C 269.024 48.484,268.625 48.544,269.113 48.618 M261.505 50.860 C 261.387 50.978,261.290 51.583,261.290 52.204 C 261.290 53.618,261.552 53.408,261.754 51.834 C 261.910 50.614,261.878 50.488,261.505 50.860 M261.365 56.452 C 261.365 57.073,261.432 57.327,261.513 57.016 C 261.594 56.706,261.594 56.198,261.513 55.887 C 261.432 55.577,261.365 55.831,261.365 56.452 M75.407 56.506 C 79.189 57.459,79.773 59.226,79.613 69.229 C 79.491 76.873,79.363 77.655,77.986 79.174 C 77.674 79.518,77.419 79.888,77.419 79.996 C 77.419 80.950,62.228 81.493,60.557 80.598 C 59.702 80.141,56.774 77.164,56.774 76.753 C 56.774 76.587,56.448 76.125,56.048 75.727 C 55.138 74.817,54.707 61.783,55.566 61.138 C 55.809 60.956,56.285 60.334,56.622 59.758 C 56.960 59.181,57.470 58.635,57.755 58.544 C 58.040 58.454,58.596 58.079,58.991 57.711 C 60.574 56.236,61.140 56.133,67.680 56.131 C 71.373 56.130,74.518 56.283,75.407 56.506 M340.366 56.678 C 341.318 56.979,342.169 57.319,342.258 57.433 C 342.347 57.547,343.109 57.900,343.952 58.219 C 344.794 58.537,345.484 58.985,345.484 59.214 C 345.484 59.444,345.738 59.885,346.048 60.196 C 346.774 60.922,346.926 75.487,346.210 75.726 C 345.988 75.800,345.806 76.080,345.806 76.348 C 345.806 77.295,344.746 78.614,343.673 79.001 C 343.076 79.217,342.404 79.567,342.181 79.778 C 340.591 81.277,325.769 81.628,324.114 80.205 C 323.242 79.455,322.258 77.272,322.258 76.088 C 322.258 75.756,322.113 75.484,321.935 75.484 C 321.730 75.484,321.613 72.849,321.613 68.226 C 321.613 63.602,321.730 60.968,321.935 60.968 C 322.113 60.968,322.258 60.680,322.258 60.329 C 322.258 59.148,323.256 57.165,323.974 56.919 C 324.361 56.787,324.968 56.569,325.323 56.436 C 326.729 55.907,338.533 56.097,340.366 56.678 M143.629 74.435 C 146.423 74.489,150.996 74.489,153.790 74.435 C 156.585 74.381,154.298 74.337,148.710 74.337 C 143.121 74.337,140.835 74.381,143.629 74.435 M248.629 74.435 C 250.980 74.490,254.827 74.490,257.177 74.435 C 259.528 74.380,257.605 74.334,252.903 74.334 C 248.202 74.334,246.278 74.380,248.629 74.435 M103.193 83.894 C 104.131 84.095,105.249 84.629,105.870 85.171 L 106.935 86.102 106.935 94.583 C 106.935 103.267,106.556 106.774,105.617 106.774 C 105.392 106.774,104.953 107.028,104.643 107.339 C 103.723 108.259,85.332 108.194,84.274 107.267 C 83.875 106.917,83.548 106.385,83.548 106.084 C 83.548 105.784,83.367 105.477,83.145 105.403 C 82.461 105.176,82.354 85.873,83.036 85.612 C 83.318 85.503,83.548 85.206,83.548 84.950 C 83.548 83.635,98.291 82.843,103.193 83.894 M316.142 83.904 C 317.269 84.145,318.100 84.574,318.738 85.242 L 319.677 86.225 319.677 93.865 C 319.677 101.027,319.315 105.161,318.688 105.161 C 318.547 105.161,318.386 105.473,318.329 105.854 C 318.272 106.235,317.935 106.707,317.581 106.903 C 317.226 107.098,316.832 107.403,316.705 107.581 C 316.561 107.783,312.958 107.903,307.028 107.903 L 297.581 107.903 296.703 107.011 C 295.514 105.802,295.161 102.818,295.161 93.981 C 295.161 85.945,295.449 84.826,297.751 83.908 C 298.863 83.464,314.076 83.461,316.142 83.904 M74.275 161.774 C 74.278 162.484,74.345 162.736,74.422 162.335 C 74.499 161.934,74.496 161.353,74.415 161.045 C 74.334 160.736,74.271 161.065,74.275 161.774 M190.024 161.523 C 189.771 161.623,189.048 162.221,188.417 162.852 L 187.269 163.999 187.050 168.048 C 186.386 180.289,186.764 185.474,188.445 187.155 C 188.768 187.478,189.033 187.851,189.035 187.984 C 189.044 188.848,191.082 189.032,200.632 189.032 L 210.491 189.032 211.699 187.984 C 212.364 187.407,212.906 186.786,212.905 186.604 C 212.904 186.422,213.194 186.024,213.548 185.720 C 214.371 185.016,214.576 164.779,213.766 164.290 C 213.531 164.148,213.244 163.775,213.128 163.460 C 213.012 163.146,212.672 162.794,212.371 162.679 C 212.070 162.563,211.558 162.204,211.234 161.879 C 210.650 161.295,191.419 160.972,190.024 161.523 M325.153 165.021 C 324.763 166.048,324.755 166.452,325.126 166.452 C 325.284 166.452,325.473 165.944,325.545 165.323 C 325.702 163.983,325.583 163.891,325.153 165.021 M74.839 166.785 C 74.839 167.424,75.744 169.278,76.177 169.524 C 76.528 169.724,76.535 169.688,76.210 169.338 C 75.423 168.490,75.768 167.960,76.590 168.751 C 77.141 169.281,77.261 169.578,76.994 169.748 C 76.484 170.072,77.095 170.025,77.903 169.677 C 78.374 169.475,78.411 169.394,78.040 169.378 C 77.761 169.365,77.195 168.996,76.784 168.558 C 76.372 168.120,75.911 167.838,75.760 167.932 C 75.608 168.026,75.484 167.731,75.484 167.277 C 75.484 166.823,75.339 166.452,75.161 166.452 C 74.984 166.452,74.839 166.601,74.839 166.785 M324.246 168.062 C 324.019 168.575,323.414 169.181,322.901 169.408 C 322.278 169.683,322.096 169.902,322.355 170.067 C 322.906 170.417,323.299 170.380,323.065 170.000 C 322.891 169.719,323.545 169.524,324.274 169.639 C 324.407 169.660,324.499 169.569,324.478 169.435 C 324.363 168.707,324.558 168.052,324.839 168.226 C 325.219 168.461,325.256 168.067,324.905 167.516 C 324.741 167.258,324.522 167.439,324.246 168.062 M78.226 170.000 C 77.604 170.267,77.606 170.278,78.287 170.300 C 78.676 170.312,79.084 170.177,79.194 170.000 C 79.429 169.618,79.114 169.618,78.226 170.000 M80.645 170.353 C 80.645 170.514,81.323 170.645,82.151 170.645 C 82.978 170.645,83.595 170.593,83.522 170.528 C 83.197 170.246,80.645 170.090,80.645 170.353 M319.677 170.323 C 318.958 170.553,319.001 170.584,320.081 170.613 C 320.746 170.631,321.290 170.500,321.290 170.323 C 321.290 169.953,320.830 169.953,319.677 170.323 M89.274 170.886 C 91.270 170.943,94.536 170.943,96.532 170.886 C 98.528 170.829,96.895 170.783,92.903 170.783 C 88.911 170.783,87.278 170.829,89.274 170.886 M303.629 170.886 C 305.714 170.942,309.125 170.942,311.210 170.886 C 313.294 170.830,311.589 170.784,307.419 170.784 C 303.250 170.784,301.544 170.830,303.629 170.886 M100.138 228.226 C 100.139 232.306,100.185 233.931,100.241 231.837 C 100.297 229.742,100.297 226.403,100.241 224.417 C 100.184 222.431,100.138 224.145,100.138 228.226 M77.800 235.764 C 77.559 235.917,78.391 235.979,79.722 235.907 C 81.013 235.837,82.136 235.713,82.218 235.632 C 82.488 235.362,78.234 235.489,77.800 235.764 M84.919 235.706 C 85.230 235.787,85.738 235.787,86.048 235.706 C 86.359 235.625,86.105 235.559,85.484 235.559 C 84.863 235.559,84.609 235.625,84.919 235.706 M314.274 235.715 C 314.762 235.789,315.560 235.789,316.048 235.715 C 316.536 235.641,316.137 235.581,315.161 235.581 C 314.185 235.581,313.786 235.641,314.274 235.715 M320.041 235.632 C 320.315 235.906,323.226 236.011,323.226 235.746 C 323.226 235.602,322.476 235.484,321.559 235.484 C 320.642 235.484,319.959 235.550,320.041 235.632 M75.023 236.313 C 74.744 236.592,74.521 236.991,74.526 237.200 C 74.531 237.410,74.681 237.331,74.859 237.026 C 75.036 236.722,75.431 236.327,75.736 236.149 C 76.041 235.971,76.119 235.822,75.910 235.816 C 75.701 235.811,75.302 236.035,75.023 236.313 M74.389 239.220 C 74.163 239.809,74.120 243.730,74.342 243.508 C 74.493 243.357,74.804 238.710,74.663 238.710 C 74.620 238.710,74.497 238.939,74.389 239.220 M112.586 241.210 C 112.583 241.431,112.389 241.613,112.154 241.613 C 111.920 241.613,111.159 241.890,110.463 242.228 C 109.767 242.567,109.051 242.757,108.873 242.650 C 108.694 242.544,108.766 242.730,109.032 243.063 C 109.469 243.610,109.463 243.649,108.973 243.466 C 108.563 243.312,108.379 243.494,108.222 244.210 C 108.108 244.731,107.793 245.281,107.523 245.432 C 106.982 245.735,106.845 262.857,107.380 263.215 C 107.522 263.309,107.820 264.327,108.043 265.475 C 108.524 267.957,110.371 270.000,112.134 270.000 C 112.379 270.000,112.581 270.145,112.581 270.323 C 112.581 270.527,115.149 270.653,119.597 270.666 C 128.159 270.692,131.772 271.127,132.912 272.266 L 133.710 273.064 133.918 283.326 L 134.127 293.587 135.572 295.013 C 137.684 297.094,137.701 297.097,148.521 297.097 C 158.026 297.097,160.323 296.894,160.323 296.052 C 160.323 295.868,160.572 295.534,160.877 295.311 C 161.619 294.769,161.824 290.762,161.613 280.970 L 161.452 273.496 160.565 272.850 C 160.077 272.495,159.677 272.006,159.677 271.763 C 159.677 271.521,159.485 271.206,159.250 271.064 C 159.015 270.923,158.736 270.572,158.631 270.285 C 158.324 269.447,157.119 269.322,147.500 269.133 C 142.488 269.035,138.387 268.844,138.387 268.708 C 138.387 268.573,138.086 268.384,137.718 268.287 C 137.350 268.191,136.970 267.811,136.874 267.443 C 136.778 267.075,136.588 266.774,136.453 266.774 C 135.915 266.774,135.484 261.554,135.484 255.037 C 135.484 248.167,135.484 248.165,134.675 247.228 C 134.231 246.712,133.786 246.036,133.686 245.726 C 133.586 245.415,133.366 245.161,133.196 245.161 C 133.026 245.161,132.754 244.812,132.592 244.385 C 132.404 243.890,131.938 243.529,131.310 243.391 C 130.767 243.272,130.323 243.065,130.323 242.932 C 130.323 242.234,126.849 241.814,120.173 241.705 C 115.085 241.621,113.017 241.478,112.839 241.197 C 112.647 240.895,112.589 240.898,112.586 241.210 M287.419 241.267 C 287.419 241.502,285.297 241.613,280.817 241.613 C 273.848 241.613,272.427 241.867,271.353 243.306 C 271.121 243.617,270.727 243.871,270.477 243.871 C 270.227 243.871,269.876 244.145,269.697 244.479 C 269.518 244.813,269.005 245.179,268.557 245.292 C 268.109 245.404,267.742 245.653,267.742 245.844 C 267.742 246.036,267.306 246.600,266.774 247.097 L 265.806 248.001 265.806 255.291 C 265.806 259.300,265.681 262.581,265.528 262.581 C 265.375 262.581,265.159 263.352,265.049 264.294 C 264.708 267.194,264.289 268.017,263.036 268.252 C 262.431 268.366,261.935 268.588,261.935 268.746 C 261.935 268.904,258.828 269.032,254.995 269.032 C 248.300 269.032,244.488 269.488,243.868 270.362 C 243.777 270.490,243.295 270.696,242.796 270.822 C 242.280 270.951,241.767 271.368,241.608 271.787 C 241.454 272.193,241.029 272.620,240.664 272.736 C 240.299 272.852,240.000 273.159,240.000 273.419 C 240.000 273.679,239.782 273.975,239.516 274.077 C 238.859 274.329,238.779 289.997,239.435 290.005 C 239.685 290.008,239.716 290.100,239.516 290.247 C 239.089 290.560,238.975 292.507,239.369 292.750 C 239.538 292.855,239.677 293.439,239.677 294.047 C 239.677 294.985,239.879 295.286,241.010 296.034 L 242.342 296.915 251.550 297.045 C 260.477 297.170,264.194 296.901,264.194 296.128 C 264.194 295.975,264.520 295.751,264.919 295.630 C 267.456 294.861,268.055 291.830,268.061 279.726 L 268.065 273.485 269.033 272.580 C 270.719 271.005,271.514 270.873,280.242 270.722 C 284.722 270.644,288.387 270.467,288.387 270.329 C 288.387 270.190,289.075 269.903,289.915 269.692 C 290.755 269.480,291.662 269.093,291.931 268.832 C 292.200 268.571,292.667 268.183,292.971 267.969 C 293.274 267.755,293.707 266.855,293.933 265.968 C 294.159 265.081,294.492 264.251,294.672 264.125 C 295.296 263.687,295.101 245.828,294.467 245.365 C 294.174 245.150,293.883 244.618,293.822 244.181 C 293.745 243.640,293.504 243.387,293.065 243.387 C 292.710 243.386,292.419 243.217,292.419 243.010 C 292.419 242.463,292.217 242.337,291.031 242.153 C 290.446 242.061,289.782 241.833,289.556 241.646 C 289.272 241.410,289.043 241.409,288.810 241.641 C 288.578 241.874,288.312 241.815,287.947 241.449 C 287.657 241.159,287.419 241.077,287.419 241.267 M74.275 245.645 C 74.278 246.355,74.345 246.607,74.422 246.206 C 74.499 245.805,74.496 245.224,74.415 244.916 C 74.334 244.607,74.271 244.935,74.275 245.645 M191.750 280.968 C 191.750 284.782,191.797 286.343,191.854 284.435 C 191.911 282.528,191.911 279.407,191.854 277.500 C 191.797 275.593,191.750 277.153,191.750 280.968 M193.042 281.452 C 193.042 285.532,193.088 287.157,193.144 285.062 C 193.201 282.968,193.200 279.629,193.144 277.643 C 193.087 275.657,193.041 277.371,193.042 281.452 M195.107 283.733 C 194.904 293.938,194.827 294.468,193.268 296.244 C 192.635 296.965,190.475 298.109,190.223 297.857 C 190.124 297.759,190.123 297.983,190.221 298.355 C 190.334 298.787,190.647 299.024,191.086 299.010 C 191.757 298.987,191.758 298.980,191.129 298.710 C 190.496 298.438,190.497 298.432,191.160 298.410 C 192.438 298.367,195.141 295.664,195.184 294.386 C 195.205 293.768,195.227 293.761,195.442 294.307 C 195.646 294.826,195.584 276.408,195.376 274.677 C 195.334 274.323,195.212 278.398,195.107 283.733 M195.947 282.419 C 195.947 287.032,195.992 288.874,196.048 286.513 C 196.103 284.152,196.103 280.378,196.047 278.126 C 195.992 275.874,195.947 277.806,195.947 282.419 M193.963 288.548 C 193.966 289.435,194.028 289.760,194.102 289.270 C 194.177 288.779,194.175 288.054,194.098 287.657 C 194.021 287.260,193.961 287.661,193.963 288.548 M190.968 289.516 C 190.968 289.782,191.113 290.000,191.290 290.000 C 191.468 290.000,191.613 289.782,191.613 289.516 C 191.613 289.250,191.468 289.032,191.290 289.032 C 191.113 289.032,190.968 289.250,190.968 289.516 M193.600 292.521 C 193.555 293.745,193.345 294.111,191.868 295.550 C 190.943 296.450,190.528 296.985,190.944 296.739 C 192.903 295.579,193.984 293.864,193.786 292.233 C 193.663 291.222,193.647 291.246,193.600 292.521 M195.004 295.793 C 194.738 296.633,193.610 297.786,192.563 298.288 C 192.129 298.496,191.970 298.676,192.208 298.688 C 193.408 298.748,196.063 295.956,195.419 295.311 C 195.309 295.202,195.123 295.419,195.004 295.793 M209.728 297.597 C 209.682 299.092,210.052 300.000,210.710 300.000 C 210.852 300.000,210.968 299.782,210.968 299.516 C 210.968 299.250,210.786 299.069,210.565 299.113 C 210.304 299.165,210.094 298.623,209.970 297.581 L 209.779 295.968 209.728 297.597 M189.355 299.516 C 189.026 299.912,189.048 300.000,189.477 300.000 C 189.764 300.000,190.000 299.782,190.000 299.516 C 190.000 299.250,189.945 299.032,189.878 299.032 C 189.811 299.032,189.576 299.250,189.355 299.516 M235.626 308.871 C 235.626 313.839,235.671 315.826,235.725 313.287 C 235.780 310.748,235.780 306.683,235.725 304.255 C 235.670 301.826,235.626 303.903,235.626 308.871 " stroke="none" fill="#dfeff7" fill-rule="evenodd"></path><path id="path1" d="M0.000 56.452 L 0.000 112.903 11.489 112.903 L 22.979 112.903 22.796 123.862 C 22.696 129.890,22.738 134.898,22.890 134.992 C 23.041 135.085,23.090 135.450,22.998 135.802 C 22.726 136.842,23.175 138.003,23.952 138.271 C 25.012 138.635,26.053 138.651,51.187 138.682 L 74.147 138.710 74.311 149.597 C 74.517 163.218,74.504 162.903,74.842 162.903 C 74.997 162.903,75.070 163.184,75.004 163.528 C 74.876 164.194,75.593 165.009,76.056 164.722 C 76.209 164.628,76.513 165.044,76.731 165.646 C 76.949 166.249,77.522 167.076,78.005 167.484 C 78.503 167.905,78.853 168.505,78.815 168.871 C 78.762 169.371,78.784 169.389,78.913 168.952 C 79.113 168.273,78.917 168.277,80.776 168.910 C 81.964 169.315,82.489 169.353,83.091 169.079 C 83.520 168.883,83.871 168.849,83.871 169.002 C 83.871 169.154,83.544 169.378,83.145 169.497 C 82.440 169.709,82.438 169.723,83.065 169.996 C 84.310 170.539,85.159 170.379,85.187 169.597 C 85.210 168.938,85.242 168.953,85.536 169.758 C 85.846 170.605,87.097 171.058,87.097 170.323 C 87.097 170.118,89.516 170.000,93.710 170.000 L 100.323 170.000 100.360 168.790 C 100.380 168.125,100.431 167.435,100.472 167.258 C 100.513 167.081,100.569 166.544,100.596 166.065 C 100.641 165.266,101.869 163.548,102.395 163.548 C 102.959 163.548,106.143 160.699,106.593 159.790 C 107.016 158.936,107.097 157.201,107.097 148.919 L 107.097 139.065 107.903 138.195 C 108.347 137.717,108.710 137.072,108.710 136.762 C 108.710 136.353,109.240 136.040,110.645 135.619 C 111.710 135.300,112.581 134.922,112.581 134.778 C 112.581 134.634,115.551 134.516,119.181 134.516 C 122.811 134.516,127.275 134.354,129.100 134.156 C 134.186 133.603,133.824 134.490,133.938 122.297 C 134.030 112.498,134.051 112.206,134.711 111.675 C 135.085 111.375,135.480 110.873,135.590 110.560 C 135.700 110.247,136.157 109.851,136.605 109.681 C 137.053 109.510,137.419 109.257,137.419 109.119 C 137.419 108.313,139.619 108.093,148.570 108.000 L 157.947 107.903 158.771 107.014 C 159.452 106.279,159.630 105.691,159.801 103.627 C 160.071 100.363,160.128 77.887,159.867 77.466 C 159.757 77.287,159.821 77.046,160.010 76.929 C 160.249 76.782,160.251 76.593,160.018 76.313 C 159.834 76.090,159.779 75.813,159.895 75.696 C 160.012 75.579,159.938 75.484,159.731 75.484 C 159.524 75.484,159.391 75.302,159.435 75.081 C 159.498 74.766,157.227 74.659,149.113 74.592 L 138.710 74.507 138.699 67.334 C 138.676 52.343,138.659 51.826,138.139 50.645 C 137.866 50.024,137.665 49.407,137.692 49.274 C 137.720 49.141,137.633 49.049,137.500 49.070 C 137.367 49.091,137.185 49.078,137.097 49.040 C 136.464 48.772,132.966 48.685,123.629 48.706 L 112.903 48.729 112.883 40.897 C 112.854 29.439,112.764 25.560,112.520 25.316 C 112.400 25.196,112.381 24.895,112.476 24.646 C 112.591 24.346,112.421 24.194,111.970 24.194 C 111.482 24.194,111.289 23.989,111.285 23.468 C 111.282 22.938,111.206 22.860,111.003 23.180 C 110.823 23.464,110.653 23.499,110.518 23.281 C 110.403 23.096,110.059 22.933,109.752 22.920 C 106.581 22.782,100.119 22.660,94.065 22.625 L 86.679 22.581 86.913 11.290 L 87.146 0.000 43.573 0.000 L 0.000 0.000 0.000 56.452 M313.436 3.437 C 313.320 5.328,313.226 10.408,313.226 14.728 L 313.226 22.581 306.048 22.599 C 296.479 22.623,290.831 22.865,290.694 23.255 C 290.622 23.463,290.442 23.459,290.181 23.242 C 289.607 22.766,287.282 25.091,287.758 25.665 C 287.989 25.943,287.984 26.102,287.741 26.183 C 287.503 26.262,287.327 29.904,287.192 37.526 L 286.993 48.752 278.738 48.715 C 267.254 48.664,264.551 48.775,264.221 49.311 C 264.022 49.632,263.914 49.646,263.820 49.364 C 263.740 49.124,263.353 49.315,262.803 49.866 C 262.205 50.463,262.035 50.830,262.284 50.984 C 262.549 51.148,262.531 51.253,262.220 51.357 C 261.660 51.543,261.428 55.843,261.341 67.661 L 261.290 74.516 251.855 74.521 C 242.551 74.525,240.804 74.635,241.152 75.198 C 241.249 75.355,241.138 75.486,240.906 75.489 C 240.596 75.492,240.612 75.584,240.968 75.836 C 241.272 76.051,241.322 76.232,241.103 76.324 C 240.775 76.460,240.776 79.345,241.105 80.210 C 241.182 80.415,241.148 80.680,241.028 80.800 C 240.633 81.195,240.674 85.624,241.075 85.880 C 241.354 86.057,241.347 86.120,241.048 86.124 C 240.738 86.128,240.645 87.766,240.645 93.226 C 240.645 97.742,240.762 100.323,240.968 100.323 C 241.145 100.323,241.290 100.766,241.290 101.309 C 241.290 101.851,241.455 103.293,241.657 104.514 L 242.023 106.732 243.350 106.954 C 244.080 107.076,244.781 107.339,244.907 107.540 C 245.065 107.789,247.554 107.930,252.811 107.990 C 260.992 108.082,262.314 108.187,262.986 108.803 C 263.693 109.451,264.934 110.093,264.677 109.677 C 264.533 109.444,264.699 109.464,265.128 109.731 C 265.501 109.964,265.806 110.386,265.806 110.669 C 265.806 110.952,266.238 111.606,266.765 112.124 L 267.724 113.065 267.733 122.816 L 267.742 132.568 268.629 132.785 C 269.117 132.905,269.589 133.107,269.677 133.234 C 270.213 134.003,274.788 134.516,281.112 134.516 C 284.891 134.516,287.742 134.643,287.742 134.810 C 287.742 134.972,288.359 135.218,289.113 135.356 C 289.867 135.494,290.593 135.634,290.726 135.666 C 290.859 135.699,291.189 135.744,291.460 135.766 C 291.730 135.788,292.089 136.169,292.258 136.613 C 292.427 137.056,292.781 137.419,293.045 137.419 C 293.309 137.419,293.681 137.710,293.871 138.065 C 294.061 138.419,294.451 138.710,294.739 138.710 C 295.213 138.710,295.244 139.612,295.077 148.468 C 294.891 158.343,295.064 160.323,296.113 160.323 C 296.299 160.323,296.452 160.504,296.452 160.726 C 296.452 161.083,297.777 162.781,299.173 164.214 C 299.600 164.653,299.867 166.336,299.974 169.274 L 300.000 170.000 306.613 170.000 C 310.806 170.000,313.226 170.118,313.226 170.323 C 313.226 170.500,313.589 170.645,314.032 170.645 C 314.476 170.645,314.839 170.500,314.839 170.323 C 314.839 170.145,315.093 169.989,315.403 169.975 C 315.740 169.959,315.805 169.884,315.565 169.786 C 314.765 169.464,315.176 169.054,315.989 169.363 C 317.389 169.895,318.667 169.794,317.884 169.212 C 317.325 168.797,317.406 168.784,318.629 169.090 C 320.885 169.655,323.608 167.847,324.083 165.470 C 324.186 164.959,324.361 164.553,324.473 164.567 C 325.612 164.710,325.515 165.759,325.695 151.296 C 325.780 144.468,325.884 138.847,325.927 138.804 C 325.970 138.762,337.246 138.702,350.986 138.672 L 375.968 138.618 376.613 137.925 C 377.384 137.096,377.377 137.225,377.401 123.306 L 377.419 112.903 388.710 112.903 L 400.000 112.903 400.000 56.452 L 400.000 0.000 356.823 0.000 L 313.646 0.000 313.436 3.437 M76.239 26.855 C 76.367 27.170,76.468 27.164,76.705 26.828 C 76.950 26.479,77.044 26.495,77.204 26.911 C 77.313 27.194,77.514 27.396,77.652 27.361 C 78.403 27.168,80.028 27.895,80.533 28.649 C 82.446 31.507,82.535 32.125,82.562 42.800 C 82.577 48.711,82.665 50.038,83.065 50.438 C 83.331 50.704,83.553 51.041,83.559 51.187 C 83.634 53.026,86.086 53.570,94.265 53.561 C 102.941 53.551,104.165 53.629,104.534 54.211 C 104.745 54.545,104.830 54.561,104.834 54.266 C 104.838 53.950,105.060 53.969,105.790 54.347 C 106.314 54.617,107.003 54.841,107.323 54.844 C 107.816 54.848,107.830 54.896,107.419 55.161 C 107.153 55.333,107.100 55.476,107.300 55.479 C 107.764 55.485,108.768 58.264,108.729 59.435 C 108.713 59.923,108.847 60.323,109.027 60.323 C 109.240 60.323,109.355 63.044,109.355 68.083 C 109.355 76.767,109.585 78.318,111.106 79.874 L 112.097 80.889 122.116 81.028 C 131.903 81.164,132.152 81.184,132.842 81.874 C 133.230 82.263,133.718 82.581,133.925 82.581 C 134.132 82.581,134.217 82.665,134.114 82.768 C 134.010 82.871,134.287 83.487,134.727 84.137 L 135.529 85.317 135.426 94.122 C 135.352 100.388,135.214 102.994,134.946 103.160 C 134.735 103.290,134.502 104.503,134.416 105.924 L 134.262 108.456 132.718 108.577 C 131.869 108.644,131.057 108.883,130.914 109.108 C 130.710 109.430,130.654 109.431,130.650 109.113 C 130.647 108.891,130.367 108.710,130.027 108.710 C 129.687 108.710,129.348 108.891,129.274 109.113 C 129.173 109.416,126.973 109.565,120.457 109.713 C 108.332 109.988,109.355 109.043,109.355 119.969 C 109.355 124.936,109.238 127.742,109.032 127.742 C 108.852 127.742,108.708 128.631,108.706 129.758 C 108.701 132.608,108.381 134.217,107.776 134.440 C 107.491 134.545,107.181 134.744,107.086 134.883 C 106.991 135.021,105.830 135.222,104.505 135.329 C 103.181 135.436,101.910 135.584,101.682 135.659 C 100.771 135.958,84.567 135.821,83.146 135.502 C 81.889 135.220,79.037 133.226,79.892 133.226 C 80.022 133.226,79.973 133.069,79.781 132.878 C 79.541 132.638,79.482 129.544,79.591 122.870 C 79.752 113.006,79.594 111.290,78.525 111.290 C 78.289 111.290,77.980 111.090,77.839 110.846 C 77.229 109.797,74.324 109.659,53.248 109.675 C 33.032 109.690,29.311 109.585,29.086 108.993 C 29.027 108.837,28.805 108.710,28.593 108.710 C 28.382 108.710,27.777 108.238,27.249 107.661 L 26.290 106.613 26.290 70.230 C 26.290 44.506,26.393 33.780,26.639 33.617 C 26.831 33.491,27.181 32.463,27.417 31.334 C 28.047 28.319,29.940 27.097,33.978 27.097 C 34.274 27.097,34.516 26.952,34.516 26.774 C 34.516 26.256,76.029 26.337,76.239 26.855 M366.452 26.736 C 366.452 26.897,367.627 27.082,369.064 27.147 C 371.396 27.253,371.742 27.352,372.290 28.068 C 372.627 28.510,373.046 29.044,373.221 29.255 C 374.440 30.731,375.376 106.774,374.174 106.774 C 374.007 106.774,373.871 107.012,373.871 107.302 C 373.871 107.961,372.393 109.360,371.486 109.559 C 371.112 109.641,360.756 109.695,348.472 109.679 C 323.009 109.646,322.319 109.716,322.269 112.339 C 322.263 112.649,322.113 112.903,321.935 112.903 C 321.731 112.903,321.613 115.323,321.613 119.516 C 321.613 124.589,321.707 126.130,322.016 126.134 C 322.290 126.137,322.264 126.249,321.935 126.481 C 321.539 126.762,321.531 126.855,321.891 126.999 C 322.263 127.147,322.263 127.218,321.891 127.453 C 321.531 127.682,321.539 127.734,321.935 127.742 C 322.366 127.751,322.366 127.787,321.935 128.069 C 321.505 128.352,321.505 128.422,321.935 128.705 C 322.366 128.987,322.366 129.023,321.935 129.032 C 321.505 129.041,321.505 129.077,321.935 129.355 C 322.258 129.563,322.285 129.669,322.016 129.672 C 321.739 129.676,321.613 130.282,321.613 131.613 C 321.613 132.688,321.470 133.548,321.290 133.548 C 321.113 133.548,320.968 133.766,320.968 134.032 C 320.968 134.298,320.750 134.516,320.484 134.516 C 320.218 134.516,320.000 134.644,320.000 134.800 C 320.000 135.163,318.420 135.802,317.581 135.778 C 317.226 135.768,313.016 135.763,308.226 135.767 C 303.435 135.771,298.930 135.662,298.215 135.524 C 297.499 135.386,296.446 135.295,295.876 135.322 C 295.206 135.353,294.839 135.219,294.839 134.943 C 294.839 134.402,294.292 134.383,294.113 134.919 C 294.039 135.140,293.880 134.705,293.760 133.951 C 293.619 133.071,293.374 132.581,293.074 132.581 C 292.678 132.581,292.592 131.030,292.513 122.418 L 292.419 112.256 291.151 111.128 C 290.454 110.508,289.873 109.983,289.861 109.962 C 289.849 109.942,285.950 109.833,281.197 109.720 C 274.043 109.551,272.499 109.433,272.221 109.032 C 271.947 108.636,271.855 108.628,271.711 108.988 C 271.594 109.280,271.463 109.311,271.320 109.081 C 271.202 108.890,270.390 108.692,269.515 108.641 C 267.652 108.533,266.774 107.840,266.774 106.480 C 266.774 105.963,266.556 104.403,266.290 103.012 C 265.748 100.180,265.586 85.336,266.093 85.022 C 266.251 84.925,266.472 84.477,266.585 84.027 C 266.893 82.801,267.783 82.109,269.202 81.993 C 269.902 81.935,270.580 81.718,270.709 81.509 C 270.877 81.237,273.354 81.103,279.423 81.037 C 288.995 80.932,290.899 80.512,290.957 78.495 C 290.963 78.288,291.124 78.066,291.316 78.002 C 292.207 77.705,292.592 74.059,292.532 66.504 C 292.483 60.309,292.553 58.925,292.930 58.687 C 293.285 58.462,293.292 58.396,292.961 58.392 C 292.641 58.388,292.661 58.261,293.041 57.880 C 293.320 57.601,293.548 57.121,293.548 56.812 C 293.548 56.223,294.643 54.867,295.174 54.798 C 295.344 54.776,295.634 54.740,295.818 54.718 C 296.002 54.696,296.287 54.460,296.451 54.194 C 296.702 53.788,298.092 53.695,305.069 53.617 C 312.750 53.531,316.774 53.192,316.774 52.631 C 316.774 52.507,317.263 52.141,317.861 51.820 C 319.477 50.949,319.641 49.950,319.833 39.839 C 320.051 28.393,320.014 29.178,320.312 29.660 C 320.470 29.917,320.641 29.638,320.781 28.894 C 320.902 28.250,321.138 27.809,321.307 27.913 C 321.475 28.017,321.613 27.925,321.613 27.707 C 321.613 27.490,321.708 27.407,321.825 27.524 C 321.942 27.641,322.230 27.576,322.466 27.380 C 322.702 27.185,323.103 27.104,323.356 27.202 C 323.610 27.299,323.896 27.174,323.992 26.924 C 324.198 26.387,366.452 26.200,366.452 26.736 M60.580 56.588 C 60.101 56.837,59.386 57.343,58.991 57.711 C 58.596 58.079,58.040 58.454,57.755 58.544 C 57.470 58.635,56.960 59.181,56.622 59.758 C 56.285 60.334,55.809 60.956,55.566 61.138 C 54.707 61.783,55.138 74.817,56.048 75.727 C 56.448 76.125,56.774 76.587,56.774 76.753 C 56.774 77.164,59.702 80.141,60.557 80.598 C 62.228 81.493,77.419 80.950,77.419 79.996 C 77.419 79.888,77.674 79.518,77.986 79.174 C 79.363 77.655,79.491 76.873,79.613 69.229 C 79.815 56.598,79.386 56.127,67.680 56.131 C 62.953 56.133,61.242 56.243,60.580 56.588 M325.323 56.436 C 324.968 56.569,324.361 56.787,323.974 56.919 C 323.256 57.165,322.258 59.148,322.258 60.329 C 322.258 60.680,322.113 60.968,321.935 60.968 C 321.730 60.968,321.613 63.602,321.613 68.226 C 321.613 72.849,321.730 75.484,321.935 75.484 C 322.113 75.484,322.258 75.756,322.258 76.088 C 322.258 77.272,323.242 79.455,324.114 80.205 C 325.769 81.628,340.591 81.277,342.181 79.778 C 342.404 79.567,343.076 79.217,343.673 79.001 C 344.746 78.614,345.806 77.295,345.806 76.348 C 345.806 76.080,345.988 75.800,346.210 75.726 C 346.926 75.487,346.774 60.922,346.048 60.196 C 345.738 59.885,345.484 59.444,345.484 59.214 C 345.484 58.985,344.794 58.537,343.952 58.219 C 343.109 57.900,342.347 57.547,342.258 57.433 C 341.392 56.323,327.759 55.520,325.323 56.436 M84.597 84.029 C 84.020 84.280,83.548 84.694,83.548 84.950 C 83.548 85.206,83.318 85.503,83.036 85.612 C 82.354 85.873,82.461 105.176,83.145 105.403 C 83.367 105.477,83.548 105.784,83.548 106.084 C 83.548 106.385,83.875 106.917,84.274 107.267 C 85.332 108.194,103.723 108.259,104.643 107.339 C 104.953 107.028,105.392 106.774,105.617 106.774 C 106.556 106.774,106.935 103.267,106.935 94.583 L 106.935 86.102 105.870 85.171 C 104.283 83.785,102.473 83.547,93.613 83.561 C 87.482 83.571,85.404 83.679,84.597 84.029 M297.751 83.908 C 295.449 84.826,295.161 85.945,295.161 93.981 C 295.161 102.818,295.514 105.802,296.703 107.011 L 297.581 107.903 307.028 107.903 C 312.958 107.903,316.561 107.783,316.705 107.581 C 316.832 107.403,317.226 107.098,317.581 106.903 C 317.935 106.707,318.272 106.235,318.329 105.854 C 318.386 105.473,318.547 105.161,318.688 105.161 C 319.315 105.161,319.677 101.027,319.677 93.865 L 319.677 86.225 318.738 85.242 C 318.100 84.574,317.269 84.145,316.142 83.904 C 314.076 83.461,298.863 83.464,297.751 83.908 M77.906 165.237 C 78.050 165.107,78.059 165.189,77.926 165.419 C 77.649 165.900,76.766 165.359,76.784 164.719 C 76.790 164.519,76.986 164.607,77.220 164.914 C 77.453 165.222,77.762 165.367,77.906 165.237 M75.811 165.868 C 75.820 166.584,76.342 167.213,76.592 166.809 C 76.713 166.612,76.650 166.452,76.452 166.452 C 76.253 166.452,76.174 166.316,76.277 166.151 C 76.379 165.986,76.315 165.760,76.134 165.648 C 75.954 165.537,75.809 165.636,75.811 165.868 M77.016 168.127 C 77.405 168.517,77.808 168.752,77.910 168.650 C 78.151 168.408,77.162 167.419,76.679 167.419 C 76.475 167.419,76.627 167.738,77.016 168.127 M322.879 168.270 C 322.159 169.052,322.152 169.091,322.785 168.762 C 323.163 168.566,323.558 168.183,323.662 167.912 C 323.926 167.224,323.778 167.292,322.879 168.270 M101.524 216.242 C 100.432 217.421,100.330 218.371,100.326 227.451 L 100.323 235.386 91.048 235.612 C 85.948 235.737,81.484 235.836,81.129 235.833 C 80.774 235.830,80.020 235.954,79.452 236.109 C 78.812 236.284,78.381 236.272,78.316 236.077 C 78.259 235.905,77.878 236.054,77.470 236.408 C 77.062 236.761,76.459 236.999,76.129 236.935 C 75.691 236.851,75.561 236.981,75.645 237.419 C 75.709 237.749,75.471 238.352,75.117 238.760 C 74.764 239.168,74.615 239.549,74.787 239.606 C 74.978 239.670,74.995 240.112,74.830 240.742 C 74.429 242.271,74.437 241.616,74.302 283.629 L 74.176 322.581 119.346 322.581 L 164.516 322.581 164.516 311.290 L 164.516 300.000 175.242 299.979 C 189.302 299.951,190.537 299.840,189.816 298.673 C 189.719 298.516,189.802 298.387,190.000 298.387 C 190.198 298.387,190.275 298.248,190.170 298.078 C 190.065 297.908,190.394 297.555,190.901 297.293 C 194.183 295.596,194.839 292.806,194.839 280.546 C 194.839 274.887,194.781 274.194,194.312 274.194 C 193.836 274.194,193.800 274.944,193.932 282.093 C 194.013 286.438,194.000 289.914,193.904 289.818 C 193.808 289.722,193.642 286.131,193.535 281.838 L 193.340 274.032 193.283 280.391 C 193.251 283.888,193.384 288.204,193.578 289.982 C 193.923 293.157,193.627 295.161,192.813 295.161 C 192.673 295.161,192.713 294.871,192.903 294.516 C 193.093 294.161,193.133 293.871,192.991 293.871 C 192.849 293.871,192.590 294.198,192.415 294.597 C 192.240 294.996,191.770 295.466,191.371 295.641 C 190.972 295.816,190.645 296.075,190.645 296.217 C 190.645 296.358,190.935 296.319,191.290 296.129 C 191.645 295.939,191.934 295.898,191.933 296.037 C 191.932 296.176,191.590 296.448,191.173 296.641 C 190.015 297.178,190.233 296.041,191.547 294.698 C 192.974 293.239,193.092 292.200,192.957 282.339 C 192.865 275.652,192.765 274.194,192.397 274.194 C 192.031 274.194,191.931 275.455,191.854 281.048 L 191.761 287.903 191.687 281.048 C 191.620 274.847,191.561 274.194,191.066 274.194 C 190.765 274.194,190.003 273.863,189.372 273.460 C 184.967 270.640,185.928 270.818,174.579 270.713 L 164.481 270.619 163.531 269.772 C 163.008 269.307,162.581 268.716,162.581 268.461 C 162.581 268.181,162.389 268.069,162.101 268.180 C 161.837 268.281,161.648 268.260,161.682 268.134 C 161.829 267.587,160.841 263.366,160.517 263.157 C 160.279 263.003,160.134 260.499,160.078 255.577 C 159.995 248.290,159.702 245.942,158.804 245.387 C 158.575 245.245,158.387 244.941,158.387 244.710 C 158.387 244.108,151.539 243.543,144.274 243.546 C 140.890 243.547,138.387 243.422,138.387 243.251 C 138.387 242.874,136.497 240.968,136.123 240.968 C 135.970 240.968,135.741 240.800,135.614 240.595 C 135.477 240.373,135.525 240.310,135.735 240.439 C 136.093 240.661,135.225 238.679,134.836 238.387 C 134.268 237.961,134.079 236.008,133.902 228.736 C 133.761 222.975,133.604 220.825,133.317 220.729 C 133.101 220.657,132.830 220.101,132.716 219.493 C 132.534 218.524,132.315 218.319,130.932 217.828 C 130.065 217.520,129.355 217.168,129.355 217.046 C 129.355 216.370,126.236 216.158,115.000 216.067 C 108.190 216.012,102.648 215.838,102.531 215.676 C 102.415 215.515,101.962 215.770,101.524 216.242 M296.968 215.721 C 296.731 215.957,295.066 215.995,281.196 216.080 L 273.198 216.129 270.487 218.840 L 267.776 221.551 267.678 228.944 C 267.592 235.475,267.515 236.404,267.016 236.902 C 266.706 237.212,266.452 237.665,266.452 237.910 C 266.452 238.154,266.089 238.745,265.645 239.224 C 265.202 239.703,264.839 240.194,264.839 240.317 C 264.839 240.439,264.171 241.216,263.355 242.044 L 261.872 243.548 255.477 243.548 C 249.612 243.548,245.806 243.931,245.806 244.520 C 245.806 244.639,244.953 244.995,243.910 245.311 C 242.170 245.838,241.978 245.989,241.600 247.136 C 241.373 247.824,241.065 248.387,240.916 248.387 C 240.767 248.387,240.643 251.617,240.641 255.565 C 240.638 262.694,240.235 266.104,239.364 266.395 C 239.181 266.456,239.032 266.750,239.032 267.049 C 239.032 267.347,238.396 268.256,237.619 269.067 L 236.206 270.542 226.409 270.744 C 217.428 270.928,214.717 271.174,214.216 271.849 C 214.115 271.985,213.319 272.460,212.446 272.903 C 211.574 273.347,210.584 273.855,210.245 274.032 C 209.414 274.468,209.614 298.479,210.455 299.248 C 210.628 299.405,210.651 299.317,210.512 299.032 C 210.381 298.766,210.494 298.817,210.761 299.145 C 211.029 299.473,211.392 299.653,211.569 299.543 C 211.746 299.434,211.982 299.492,212.094 299.672 C 212.225 299.885,216.437 300.000,224.051 300.000 L 235.806 300.000 235.806 311.290 L 235.806 322.581 280.821 322.581 L 325.836 322.581 325.740 280.887 C 325.646 239.580,325.627 238.449,325.000 237.989 C 324.803 237.844,324.842 237.750,325.100 237.747 C 325.332 237.744,325.431 237.594,325.319 237.414 C 325.208 237.234,324.982 237.170,324.816 237.272 C 324.651 237.374,324.516 237.327,324.516 237.168 C 324.516 236.545,322.625 235.998,320.161 235.908 C 318.742 235.856,313.645 235.719,308.834 235.603 L 300.087 235.392 299.918 226.648 C 299.747 217.820,299.384 215.352,298.348 215.992 C 298.176 216.098,297.848 216.028,297.617 215.837 C 297.387 215.646,297.095 215.593,296.968 215.721 M120.173 241.718 C 126.847 241.841,130.968 242.319,130.968 242.973 C 130.968 243.112,131.258 243.226,131.613 243.226 C 131.968 243.226,132.260 243.044,132.263 242.823 C 132.266 242.539,132.338 242.526,132.505 242.779 C 132.635 242.977,133.044 243.233,133.414 243.348 C 133.784 243.463,134.102 243.737,134.123 243.956 C 134.279 245.665,134.692 247.319,135.053 247.679 C 135.386 248.012,135.484 249.681,135.484 255.010 C 135.484 261.550,135.914 266.774,136.453 266.774 C 136.588 266.774,136.778 267.075,136.874 267.443 C 136.970 267.811,137.350 268.191,137.718 268.287 C 138.086 268.384,138.387 268.591,138.387 268.747 C 138.387 268.904,141.472 269.032,145.242 269.031 C 155.000 269.028,160.323 269.553,160.323 270.516 C 160.323 270.912,160.455 271.285,160.616 271.344 C 161.896 271.813,162.142 294.386,160.877 295.311 C 160.572 295.534,160.323 295.868,160.323 296.052 C 160.323 296.894,158.026 297.097,148.521 297.097 C 137.701 297.097,137.684 297.094,135.572 295.013 L 134.127 293.587 133.918 283.326 L 133.710 273.064 132.912 272.266 C 131.772 271.127,128.159 270.692,119.597 270.666 C 115.149 270.653,112.581 270.527,112.581 270.323 C 112.581 270.145,112.379 270.000,112.134 270.000 C 110.371 270.000,108.524 267.957,108.043 265.475 C 107.820 264.327,107.522 263.309,107.380 263.215 C 106.845 262.857,106.982 245.735,107.523 245.432 C 107.793 245.281,108.108 244.731,108.222 244.210 C 108.379 243.494,108.563 243.312,108.973 243.466 C 109.463 243.649,109.469 243.610,109.032 243.063 C 108.766 242.730,108.694 242.544,108.873 242.650 C 109.051 242.757,109.767 242.567,110.463 242.228 C 111.159 241.890,111.920 241.613,112.154 241.613 C 112.389 241.613,112.583 241.431,112.586 241.210 C 112.589 240.898,112.647 240.895,112.839 241.197 C 113.017 241.477,115.098 241.625,120.173 241.718 M288.810 241.641 C 289.043 241.409,289.272 241.410,289.556 241.646 C 289.782 241.833,290.446 242.061,291.031 242.153 C 292.217 242.337,292.419 242.463,292.419 243.010 C 292.419 243.217,292.710 243.386,293.065 243.387 C 293.504 243.387,293.745 243.640,293.822 244.181 C 293.883 244.618,294.174 245.150,294.467 245.365 C 295.101 245.828,295.296 263.687,294.672 264.125 C 294.492 264.251,294.159 265.081,293.933 265.968 C 293.707 266.855,293.274 267.755,292.971 267.969 C 292.667 268.183,292.200 268.571,291.931 268.832 C 291.662 269.093,290.755 269.480,289.915 269.692 C 289.075 269.903,288.387 270.190,288.387 270.329 C 288.387 270.467,284.722 270.644,280.242 270.722 C 271.514 270.873,270.719 271.005,269.033 272.580 L 268.065 273.485 268.061 279.726 C 268.055 291.830,267.456 294.861,264.919 295.630 C 264.520 295.751,264.194 295.975,264.194 296.128 C 264.194 296.901,260.477 297.170,251.550 297.045 L 242.342 296.915 241.010 296.034 C 239.879 295.286,239.677 294.985,239.677 294.047 C 239.677 293.439,239.538 292.855,239.369 292.750 C 238.975 292.507,239.089 290.560,239.516 290.247 C 239.716 290.100,239.685 290.008,239.435 290.005 C 238.765 289.997,238.862 274.550,239.536 274.058 C 239.813 273.855,240.053 273.211,240.069 272.626 C 240.091 271.852,240.328 271.418,240.937 271.031 C 241.397 270.738,241.855 270.387,241.954 270.250 C 242.053 270.113,243.029 269.926,244.123 269.834 C 245.217 269.743,246.488 269.525,246.948 269.350 C 247.408 269.175,250.968 269.032,254.860 269.032 C 258.771 269.032,261.935 268.904,261.935 268.746 C 261.935 268.588,262.431 268.366,263.036 268.252 C 264.289 268.017,264.708 267.194,265.049 264.294 C 265.159 263.352,265.375 262.581,265.528 262.581 C 265.681 262.581,265.806 259.378,265.806 255.463 C 265.806 250.710,265.930 248.114,266.178 247.651 C 266.382 247.269,266.566 246.546,266.586 246.044 C 266.606 245.542,266.838 244.982,267.102 244.799 C 267.503 244.521,267.508 244.438,267.132 244.288 C 266.838 244.171,267.045 243.957,267.729 243.669 C 268.305 243.427,268.906 243.309,269.066 243.408 C 269.225 243.506,269.366 243.324,269.380 243.003 C 269.395 242.664,269.474 242.589,269.568 242.823 C 269.741 243.251,271.290 243.395,271.290 242.982 C 271.290 242.185,274.002 241.810,280.565 241.702 C 284.995 241.629,287.419 241.471,287.419 241.255 C 287.419 241.072,287.657 241.159,287.947 241.449 C 288.312 241.815,288.578 241.874,288.810 241.641 M191.613 289.516 C 191.613 289.782,191.468 290.000,191.290 290.000 C 191.113 290.000,190.968 289.782,190.968 289.516 C 190.968 289.250,191.113 289.032,191.290 289.032 C 191.468 289.032,191.613 289.250,191.613 289.516 M193.307 292.742 C 193.311 293.452,193.377 293.704,193.454 293.303 C 193.531 292.901,193.528 292.321,193.447 292.012 C 193.367 291.704,193.304 292.032,193.307 292.742 " stroke="none" fill="#c4ccd4" fill-rule="evenodd"></path><path id="path2" d="M313.014 2.419 C 313.015 3.839,313.072 4.379,313.140 3.621 C 313.208 2.862,313.207 1.700,313.138 1.040 C 313.068 0.379,313.013 1.000,313.014 2.419 M287.612 23.175 C 287.500 23.356,287.566 23.601,287.758 23.720 C 288.254 24.026,288.574 23.606,288.160 23.192 C 287.928 22.961,287.748 22.955,287.612 23.175 M266.697 48.615 C 267.099 48.692,267.679 48.689,267.988 48.609 C 268.296 48.528,267.968 48.465,267.258 48.468 C 266.548 48.472,266.296 48.538,266.697 48.615 M261.372 54.355 C 261.375 55.065,261.441 55.317,261.518 54.916 C 261.596 54.514,261.593 53.934,261.512 53.625 C 261.431 53.317,261.368 53.645,261.372 54.355 M162.777 74.459 C 162.687 74.604,162.813 75.108,163.056 75.577 C 163.737 76.888,163.595 107.167,162.902 108.533 C 161.394 111.508,160.919 111.621,148.904 111.846 C 140.018 112.013,138.492 112.113,138.011 112.561 C 137.506 113.031,137.443 114.129,137.355 123.891 L 137.258 134.700 136.059 135.898 C 134.442 137.515,132.780 137.727,121.694 137.736 C 116.827 137.739,112.903 137.869,112.903 138.027 C 112.903 138.184,112.613 138.388,112.258 138.481 C 111.630 138.645,111.613 138.921,111.613 149.115 C 111.613 159.163,111.417 161.613,110.614 161.613 C 110.454 161.613,110.323 161.888,110.323 162.224 C 110.323 162.559,110.105 162.918,109.839 163.020 C 109.573 163.122,109.353 163.392,109.352 163.619 C 109.350 163.846,108.791 164.266,108.111 164.552 C 107.148 164.956,106.828 165.297,106.670 166.087 C 106.558 166.645,106.354 167.083,106.217 167.061 C 105.541 166.951,105.161 167.145,105.161 167.600 C 105.161 167.876,105.016 168.013,104.839 167.903 C 104.661 167.794,104.516 167.926,104.516 168.197 C 104.516 168.507,104.333 168.619,104.020 168.499 C 103.748 168.394,103.239 168.567,102.891 168.882 C 102.543 169.197,102.258 169.332,102.258 169.182 C 102.258 169.032,102.052 169.191,101.801 169.535 C 101.379 170.113,100.783 170.175,94.139 170.340 L 86.935 170.518 93.468 170.582 L 100.000 170.645 100.048 192.661 C 100.075 204.770,100.157 214.278,100.231 213.790 C 100.306 213.298,100.571 212.903,100.828 212.903 C 101.131 212.903,101.290 212.556,101.290 211.896 C 101.290 211.090,101.377 210.961,101.723 211.248 C 101.961 211.446,102.252 211.512,102.368 211.395 C 102.485 211.278,102.581 211.380,102.581 211.621 C 102.581 211.904,102.748 211.838,103.054 211.433 C 103.346 211.046,103.532 210.968,103.538 211.229 C 103.544 211.461,103.690 211.564,103.862 211.457 C 104.327 211.170,127.448 211.273,130.687 211.577 C 133.408 211.832,133.845 212.009,135.273 213.437 C 137.256 215.420,137.415 216.451,137.417 227.323 C 137.419 233.994,137.509 235.829,137.847 236.032 C 138.082 236.174,138.363 236.532,138.471 236.827 C 138.648 237.309,139.703 237.375,148.770 237.472 C 159.733 237.590,159.027 237.479,160.936 239.387 C 163.034 241.485,163.238 242.606,163.451 253.145 C 163.548 257.980,163.739 261.935,163.875 261.935 C 164.011 261.935,164.216 262.440,164.332 263.056 L 164.542 264.176 174.771 264.302 C 185.427 264.432,185.806 264.453,185.806 264.892 C 185.806 265.040,186.048 265.161,186.344 265.161 C 186.640 265.161,186.797 265.246,186.694 265.349 C 186.590 265.453,186.784 265.816,187.124 266.156 C 187.464 266.496,187.742 266.987,187.742 267.248 C 187.742 267.518,187.933 267.648,188.186 267.551 C 188.466 267.444,188.705 267.678,188.832 268.184 C 188.943 268.626,189.221 269.179,189.451 269.413 C 189.681 269.647,190.011 270.565,190.183 271.452 C 190.374 272.433,190.652 273.033,190.893 272.984 C 191.112 272.940,191.290 273.066,191.290 273.265 C 191.290 273.515,191.440 273.503,191.774 273.226 C 192.170 272.897,192.258 272.918,192.258 273.337 C 192.258 273.632,192.441 273.781,192.686 273.686 C 192.922 273.596,193.502 273.670,193.977 273.850 L 194.839 274.178 194.828 280.718 C 194.808 292.867,194.351 295.110,191.547 296.837 C 190.062 297.752,189.932 298.279,191.371 297.550 C 194.706 295.861,194.863 295.286,195.143 283.735 L 195.379 274.032 195.460 282.581 C 195.504 287.282,195.640 291.855,195.762 292.742 C 195.883 293.629,195.925 289.819,195.853 284.274 L 195.723 274.194 202.862 274.194 L 210.000 274.194 210.000 272.903 C 210.000 272.194,210.145 271.613,210.323 271.613 C 210.500 271.613,210.645 271.400,210.645 271.139 C 210.645 270.383,211.828 268.334,213.059 266.958 C 213.683 266.260,214.194 265.570,214.194 265.425 C 214.194 265.280,214.455 265.161,214.774 265.161 C 215.094 265.161,215.521 264.995,215.725 264.791 C 216.143 264.373,218.946 264.252,228.952 264.217 C 234.819 264.197,235.806 264.124,235.806 263.710 C 235.806 263.444,235.936 263.226,236.095 263.226 C 236.764 263.226,236.918 261.629,237.083 252.972 C 237.201 246.840,237.375 243.772,237.615 243.617 C 237.811 243.491,238.070 242.851,238.190 242.196 C 238.416 240.966,240.133 238.710,240.843 238.710 C 241.064 238.710,241.482 238.472,241.772 238.182 C 242.229 237.725,243.584 237.632,251.902 237.491 C 259.427 237.364,261.639 237.231,262.123 236.877 C 262.698 236.457,262.756 235.796,262.943 227.487 C 263.135 218.928,263.377 215.806,263.847 215.806 C 263.966 215.806,264.251 215.290,264.479 214.659 C 264.772 213.848,265.240 213.352,266.076 212.966 C 266.726 212.665,267.332 212.322,267.423 212.202 C 267.833 211.663,274.984 211.304,285.968 211.271 C 300.416 211.227,299.458 211.197,299.275 211.694 C 299.193 211.915,299.311 212.605,299.538 213.226 C 299.881 214.163,299.955 210.648,299.975 192.500 L 300.000 170.645 306.694 170.580 L 313.387 170.514 306.452 170.338 C 299.185 170.153,298.065 169.934,298.065 168.698 C 298.065 168.350,297.909 168.065,297.719 168.065 C 297.357 168.065,296.420 167.246,296.440 166.947 C 296.488 166.233,296.394 166.082,295.999 166.234 C 295.672 166.359,295.570 166.182,295.634 165.597 C 295.730 164.729,295.589 164.630,293.924 164.394 C 293.332 164.310,292.647 163.976,292.402 163.653 C 292.157 163.329,291.951 163.172,291.946 163.304 C 291.928 163.718,290.323 162.163,290.323 161.732 C 290.323 161.507,290.069 161.180,289.758 161.007 C 289.241 160.718,289.185 159.772,289.093 149.716 C 288.997 139.184,288.968 138.733,288.368 138.542 C 288.024 138.433,287.742 138.226,287.742 138.083 C 287.742 137.939,283.351 137.746,277.984 137.654 C 268.795 137.496,265.806 137.206,265.806 136.474 C 265.806 136.326,265.505 136.126,265.137 136.029 C 264.769 135.933,264.390 135.553,264.293 135.185 C 264.197 134.817,263.997 134.516,263.849 134.516 C 263.144 134.516,262.907 131.509,262.905 122.572 C 262.903 113.763,262.859 113.009,262.316 112.544 C 261.826 112.124,260.123 112.008,251.913 111.833 C 240.662 111.593,238.065 111.028,238.065 108.818 C 238.065 108.581,237.932 108.387,237.770 108.387 C 236.840 108.387,236.575 75.963,237.501 75.444 C 237.811 75.271,238.065 74.919,238.065 74.661 C 238.065 74.134,163.103 73.932,162.777 74.459 M237.097 133.152 C 237.097 133.289,238.004 133.572,239.113 133.782 C 240.496 134.043,241.268 134.371,241.572 134.824 C 241.815 135.187,242.193 135.484,242.411 135.484 C 242.990 135.484,244.817 137.320,245.176 138.263 C 245.347 138.713,245.484 143.361,245.484 148.705 L 245.484 158.336 246.452 158.548 C 246.984 158.665,247.419 158.879,247.419 159.024 C 247.419 159.168,251.302 159.360,256.048 159.450 C 264.228 159.605,267.742 159.972,267.742 160.671 C 267.742 160.834,267.948 160.968,268.200 160.968 C 269.581 160.968,271.613 163.096,271.613 164.542 C 271.613 164.883,271.758 165.161,271.935 165.161 C 272.143 165.161,272.258 168.602,272.258 174.839 C 272.258 180.161,272.149 184.517,272.016 184.519 C 271.883 184.520,271.511 185.365,271.190 186.396 C 270.737 187.849,270.374 188.407,269.577 188.876 C 269.011 189.208,268.357 189.670,268.122 189.901 C 267.888 190.133,267.492 190.323,267.242 190.323 C 266.993 190.323,266.554 190.681,266.267 191.119 C 265.980 191.557,265.251 192.095,264.647 192.313 C 264.043 192.532,263.548 192.819,263.548 192.953 C 263.548 193.565,260.614 193.868,254.646 193.869 L 248.163 193.871 246.904 195.081 L 245.645 196.290 245.462 203.710 C 245.286 210.827,244.958 213.226,244.162 213.226 C 244.002 213.226,243.871 213.433,243.871 213.686 C 243.871 213.940,243.514 214.427,243.078 214.770 C 242.642 215.113,242.098 215.814,241.868 216.326 C 241.226 217.763,239.528 219.297,238.082 219.749 C 237.363 219.973,236.774 220.267,236.774 220.401 C 236.774 220.535,220.298 220.645,200.161 220.645 C 177.731 220.645,163.548 220.529,163.548 220.344 C 163.548 220.179,163.222 219.945,162.823 219.826 C 161.512 219.432,160.057 217.471,159.630 215.521 C 159.412 214.525,159.079 213.606,158.891 213.480 C 158.669 213.331,158.517 210.439,158.459 205.254 C 158.348 195.272,158.536 196.050,156.056 195.307 C 154.943 194.973,153.840 194.514,153.606 194.286 C 153.285 193.973,151.437 193.871,146.127 193.871 C 142.248 193.871,138.705 193.731,138.254 193.559 C 137.400 193.234,132.581 188.651,132.581 188.164 C 132.581 188.011,132.181 187.518,131.694 187.069 C 129.372 184.932,129.513 185.735,129.549 174.785 L 129.582 164.892 132.014 162.490 L 134.447 160.089 136.914 159.722 C 138.271 159.520,142.641 159.355,146.626 159.355 C 151.241 159.355,153.871 159.238,153.871 159.032 C 153.871 158.855,154.433 158.710,155.121 158.710 C 155.808 158.710,156.819 158.620,157.367 158.511 L 158.362 158.311 158.455 147.650 C 158.527 139.475,158.642 136.958,158.952 136.855 C 159.173 136.781,159.358 136.478,159.362 136.183 C 159.377 135.025,161.371 133.548,162.918 133.548 C 163.265 133.548,163.548 133.403,163.548 133.226 C 163.548 133.013,176.022 132.903,200.323 132.903 C 220.548 132.903,237.097 133.015,237.097 133.152 M74.793 164.451 C 75.098 164.666,75.123 164.825,74.873 164.979 C 74.303 165.331,74.419 166.791,75.000 166.568 C 75.356 166.432,75.484 166.611,75.484 167.243 C 75.484 167.716,75.608 168.026,75.760 167.932 C 75.911 167.838,76.372 168.120,76.784 168.558 C 77.195 168.996,77.761 169.365,78.040 169.378 C 78.411 169.394,78.374 169.475,77.903 169.677 C 77.095 170.025,76.484 170.072,76.994 169.748 C 77.261 169.578,77.141 169.281,76.590 168.751 C 75.850 168.039,75.423 168.406,76.048 169.217 C 76.181 169.389,76.036 169.257,75.726 168.923 C 75.415 168.589,75.161 168.090,75.161 167.814 C 75.161 167.538,75.069 167.404,74.957 167.517 C 73.965 168.508,76.663 170.594,78.187 170.015 C 79.399 169.554,79.636 169.607,78.890 170.172 C 78.303 170.616,78.338 170.645,79.454 170.645 C 80.109 170.645,80.645 170.509,80.645 170.343 C 80.645 170.177,81.190 170.101,81.855 170.176 C 82.650 170.265,82.456 170.166,81.290 169.889 C 77.278 168.934,76.073 167.987,75.508 165.347 C 75.397 164.828,75.092 164.345,74.830 164.274 C 74.443 164.168,74.436 164.201,74.793 164.451 M324.364 166.703 C 324.072 167.888,322.695 169.278,321.570 169.526 C 320.572 169.745,320.977 170.645,322.074 170.645 C 322.678 170.645,322.750 170.122,322.177 169.891 C 321.909 169.783,321.942 169.720,322.274 169.703 C 322.549 169.689,322.924 169.827,323.107 170.011 C 323.549 170.452,324.450 170.082,324.878 169.282 C 325.122 168.825,325.120 168.539,324.869 168.288 C 324.675 168.094,324.528 167.710,324.542 167.435 C 324.559 167.103,324.622 167.071,324.730 167.339 C 324.961 167.911,325.484 167.839,325.484 167.235 C 325.484 166.165,324.601 165.745,324.364 166.703 M324.448 168.806 C 324.404 169.336,324.165 169.566,323.612 169.612 L 322.837 169.676 323.596 168.876 C 324.527 167.894,324.523 167.894,324.448 168.806 M316.774 170.322 C 315.976 170.455,315.214 170.501,315.081 170.424 C 314.948 170.347,314.839 170.438,314.839 170.626 C 314.839 170.832,315.675 170.968,316.935 170.968 C 318.089 170.968,319.032 170.833,319.032 170.668 C 319.032 170.503,319.359 170.305,319.758 170.228 C 321.038 169.981,318.304 170.068,316.774 170.322 M83.548 170.645 C 83.548 170.823,84.056 170.968,84.677 170.968 C 85.298 170.968,85.806 170.823,85.806 170.645 C 85.806 170.468,85.298 170.323,84.677 170.323 C 84.056 170.323,83.548 170.468,83.548 170.645 M76.368 235.834 C 76.057 236.015,75.654 236.073,75.473 235.961 C 75.293 235.850,75.185 235.951,75.234 236.186 C 75.283 236.421,75.130 236.573,74.895 236.524 C 74.660 236.476,74.558 236.581,74.668 236.760 C 74.778 236.938,74.707 237.384,74.511 237.752 C 74.314 238.120,74.216 238.667,74.292 238.969 C 74.384 239.327,74.515 239.157,74.675 238.473 C 74.808 237.899,75.028 237.498,75.164 237.582 C 75.300 237.666,75.391 237.483,75.367 237.174 C 75.339 236.825,75.534 236.630,75.884 236.657 C 76.192 236.681,76.365 236.573,76.268 236.415 C 76.171 236.258,76.354 236.127,76.675 236.124 C 76.995 236.121,77.476 235.978,77.742 235.806 C 78.434 235.359,77.139 235.385,76.368 235.834 M318.310 235.712 C 318.711 235.789,319.292 235.786,319.601 235.706 C 319.909 235.625,319.581 235.562,318.871 235.565 C 318.161 235.569,317.909 235.635,318.310 235.712 M324.194 236.252 C 324.194 236.464,324.484 236.659,324.839 236.685 C 325.194 236.712,325.484 236.615,325.484 236.469 C 325.484 236.323,325.194 236.128,324.839 236.036 C 324.460 235.936,324.194 236.026,324.194 236.252 M195.184 294.386 C 195.164 294.967,194.551 295.949,193.637 296.863 C 192.723 297.777,191.741 298.390,191.160 298.410 C 190.497 298.432,190.496 298.438,191.129 298.710 C 192.040 299.101,192.901 299.123,192.296 298.740 C 191.947 298.519,192.001 298.410,192.548 298.236 C 192.932 298.114,193.594 297.667,194.018 297.243 C 194.442 296.819,194.888 296.158,195.010 295.774 C 195.184 295.227,195.293 295.172,195.514 295.522 C 195.898 296.127,195.875 295.266,195.484 294.355 C 195.212 293.722,195.206 293.723,195.184 294.386 M194.857 296.900 C 194.631 297.324,194.098 297.856,193.675 298.083 C 193.251 298.310,192.972 298.563,193.055 298.646 C 193.304 298.895,194.790 297.791,195.176 297.069 C 195.374 296.699,195.476 296.336,195.403 296.263 C 195.330 296.190,195.084 296.477,194.857 296.900 M190.000 299.419 C 190.000 299.798,190.109 299.976,190.242 299.816 C 190.375 299.655,190.605 299.433,190.753 299.323 C 190.901 299.212,190.792 299.034,190.511 298.926 C 190.143 298.785,190.000 298.923,190.000 299.419 " stroke="none" fill="#6337ba" fill-rule="evenodd"></path><path id="path3" d="M313.334 2.258 C 313.334 3.589,313.391 4.133,313.461 3.468 C 313.530 2.802,313.530 1.714,313.461 1.048 C 313.391 0.383,313.334 0.927,313.334 2.258 M312.985 5.968 C 312.988 6.677,313.054 6.930,313.131 6.528 C 313.209 6.127,313.206 5.547,313.125 5.238 C 313.044 4.930,312.981 5.258,312.985 5.968 M86.910 16.129 C 86.910 19.766,86.957 21.254,87.015 19.435 C 87.072 17.617,87.072 14.641,87.015 12.823 C 86.957 11.004,86.910 12.492,86.910 16.129 M116.210 48.628 C 118.117 48.685,121.238 48.685,123.145 48.628 C 125.052 48.571,123.492 48.524,119.677 48.524 C 115.863 48.524,114.302 48.571,116.210 48.628 M276.855 48.628 C 278.762 48.685,281.883 48.685,283.790 48.628 C 285.698 48.571,284.137 48.524,280.323 48.524 C 276.508 48.524,274.948 48.571,276.855 48.628 M159.590 74.426 C 160.162 74.498,161.178 74.499,161.848 74.429 C 162.517 74.359,162.048 74.301,160.806 74.299 C 159.565 74.298,159.017 74.355,159.590 74.426 M239.597 74.431 C 240.528 74.497,242.052 74.497,242.984 74.431 C 243.915 74.366,243.153 74.313,241.290 74.313 C 239.427 74.313,238.665 74.366,239.597 74.431 M266.774 106.452 C 266.774 107.840,267.641 108.532,269.515 108.641 C 270.390 108.692,271.218 108.910,271.354 109.125 C 271.527 109.396,271.605 109.347,271.608 108.965 C 271.611 108.599,271.178 108.283,270.323 108.026 C 269.613 107.814,269.032 107.533,269.032 107.403 C 269.032 107.273,268.669 107.076,268.226 106.964 C 267.705 106.834,267.419 106.535,267.419 106.123 C 267.419 105.771,267.274 105.484,267.097 105.484 C 266.919 105.484,266.774 105.919,266.774 106.452 M132.843 107.581 C 132.457 108.024,131.805 108.387,131.393 108.387 C 130.894 108.387,130.647 108.575,130.650 108.952 C 130.654 109.361,130.727 109.404,130.914 109.108 C 131.057 108.883,131.889 108.643,132.764 108.574 C 133.639 108.505,134.319 108.362,134.274 108.256 C 134.230 108.151,134.194 107.774,134.194 107.419 C 134.194 106.547,133.689 106.608,132.843 107.581 M264.898 110.164 C 265.286 111.015,265.806 111.243,265.806 110.561 C 265.806 110.338,265.520 109.976,265.169 109.757 C 264.573 109.385,264.555 109.411,264.898 110.164 M22.718 119.677 C 22.718 123.492,22.764 125.052,22.821 123.145 C 22.878 121.238,22.878 118.117,22.821 116.210 C 22.764 114.302,22.718 115.863,22.718 119.677 M107.742 133.191 C 107.742 133.349,106.871 133.740,105.806 134.058 C 104.742 134.377,103.871 134.745,103.871 134.876 C 103.871 135.007,103.617 135.187,103.306 135.276 C 102.996 135.365,103.684 135.365,104.835 135.275 C 105.986 135.186,107.002 135.004,107.093 134.872 C 107.184 134.739,107.512 134.537,107.823 134.422 C 108.415 134.204,108.622 132.903,108.065 132.903 C 107.887 132.903,107.742 133.033,107.742 133.191 M293.675 133.413 C 293.783 133.694,293.882 134.238,293.896 134.623 C 293.910 135.008,293.995 135.141,294.085 134.919 C 294.174 134.698,294.380 134.516,294.543 134.516 C 294.706 134.516,294.839 134.698,294.839 134.919 C 294.840 135.186,295.436 135.341,296.594 135.378 C 298.928 135.452,298.698 134.789,296.109 133.982 C 295.059 133.655,294.198 133.278,294.196 133.145 C 294.195 133.012,294.033 132.903,293.836 132.903 C 293.640 132.903,293.567 133.133,293.675 133.413 M109.597 135.903 C 109.109 136.096,108.710 136.443,108.710 136.675 C 108.710 137.224,109.251 137.218,109.581 136.665 C 109.723 136.427,110.129 136.069,110.484 135.868 C 111.286 135.415,110.782 135.435,109.597 135.903 M290.645 135.817 C 290.645 135.989,290.863 136.129,291.129 136.129 C 291.395 136.129,291.613 136.274,291.613 136.452 C 291.613 136.629,291.770 136.774,291.962 136.774 C 292.155 136.774,292.256 136.607,292.188 136.402 C 292.027 135.920,290.645 135.396,290.645 135.817 M163.054 137.892 L 161.935 139.011 161.935 149.033 C 161.935 158.028,161.878 159.145,161.371 159.931 C 160.692 160.984,159.656 161.910,159.140 161.925 C 158.933 161.931,158.705 162.109,158.635 162.322 C 158.540 162.606,155.805 162.755,148.303 162.886 C 138.397 163.059,138.082 163.085,137.455 163.757 C 137.101 164.138,136.624 164.512,136.396 164.588 C 136.070 164.697,135.980 166.868,135.975 174.702 L 135.968 184.677 137.177 185.838 L 138.385 186.999 148.287 187.178 C 156.267 187.323,158.256 187.446,158.530 187.812 C 158.718 188.062,159.128 188.362,159.443 188.480 C 159.757 188.598,160.111 188.952,160.229 189.267 C 160.347 189.581,160.623 189.984,160.841 190.161 C 161.559 190.744,161.935 195.008,161.935 202.562 C 161.935 206.653,162.051 210.000,162.193 210.000 C 162.335 210.000,162.644 210.544,162.880 211.210 C 163.116 211.875,163.581 212.679,163.913 212.996 C 164.245 213.314,164.516 213.713,164.516 213.884 C 164.516 214.080,177.519 214.194,200.003 214.194 L 235.489 214.194 236.454 213.334 C 236.985 212.861,237.419 212.280,237.419 212.043 C 237.419 211.807,237.554 211.613,237.718 211.613 C 238.760 211.613,239.032 209.598,239.032 201.886 C 239.032 197.655,239.159 194.194,239.313 194.194 C 239.468 194.194,239.691 193.462,239.810 192.568 C 240.172 189.837,241.346 188.387,243.195 188.387 C 243.567 188.387,243.871 188.261,243.871 188.107 C 243.871 187.597,246.525 187.357,254.516 187.145 L 262.419 186.935 263.244 186.096 C 263.698 185.634,264.278 185.186,264.534 185.101 C 265.151 184.895,265.241 164.811,264.627 164.607 C 264.421 164.538,263.931 164.203,263.537 163.861 C 262.538 162.995,261.848 162.929,252.769 162.830 C 246.689 162.763,244.698 162.644,244.597 162.339 C 244.523 162.117,243.999 161.935,243.432 161.935 C 241.991 161.935,239.718 160.222,239.688 159.113 C 239.682 158.891,239.532 158.710,239.355 158.710 C 239.147 158.710,239.032 155.185,239.032 148.781 C 239.032 137.914,239.178 138.780,237.106 137.332 C 236.361 136.812,233.894 136.774,200.240 136.774 L 164.172 136.774 163.054 137.892 M211.234 161.879 C 211.558 162.204,212.070 162.563,212.371 162.679 C 212.672 162.794,213.012 163.146,213.128 163.460 C 213.244 163.775,213.531 164.148,213.766 164.290 C 214.576 164.779,214.371 185.016,213.548 185.720 C 213.194 186.024,212.904 186.422,212.905 186.604 C 212.906 186.786,212.364 187.407,211.699 187.984 L 210.491 189.032 200.632 189.032 C 191.082 189.032,189.044 188.848,189.035 187.984 C 189.033 187.851,188.768 187.478,188.445 187.155 C 186.764 185.474,186.386 180.289,187.050 168.048 L 187.269 163.999 188.417 162.852 C 190.003 161.265,189.381 161.344,200.565 161.316 C 209.915 161.292,210.688 161.333,211.234 161.879 M315.668 169.975 C 315.052 170.656,315.283 170.865,316.088 170.355 C 316.331 170.201,316.473 169.902,316.402 169.690 C 316.319 169.441,316.059 169.542,315.668 169.975 M100.119 217.742 C 100.119 219.605,100.173 220.367,100.238 219.435 C 100.303 218.504,100.303 216.980,100.238 216.048 C 100.173 215.117,100.119 215.879,100.119 217.742 M132.263 242.823 C 132.260 243.044,132.004 243.235,131.694 243.246 C 131.261 243.262,131.299 243.335,131.855 243.558 C 132.254 243.719,132.581 244.040,132.581 244.273 C 132.581 244.505,132.835 244.923,133.145 245.202 C 133.456 245.480,133.897 245.984,134.126 246.322 C 134.487 246.856,134.516 246.768,134.344 245.645 C 134.235 244.935,134.133 244.175,134.116 243.956 C 134.100 243.737,133.784 243.463,133.414 243.348 C 133.044 243.233,132.635 242.977,132.505 242.779 C 132.338 242.526,132.266 242.539,132.263 242.823 M269.380 243.003 C 269.366 243.324,269.225 243.506,269.066 243.408 C 268.906 243.309,268.305 243.427,267.729 243.669 C 267.045 243.957,266.838 244.171,267.132 244.288 C 267.508 244.438,267.503 244.521,267.102 244.799 C 266.338 245.329,266.377 247.160,267.143 246.749 C 267.473 246.573,267.742 246.230,267.742 245.988 C 267.742 245.745,268.177 245.395,268.710 245.210 C 269.242 245.024,269.677 244.727,269.677 244.551 C 269.677 244.374,270.066 244.039,270.541 243.808 C 271.015 243.576,271.440 243.202,271.484 242.976 C 271.528 242.750,271.491 242.713,271.401 242.895 C 271.169 243.363,269.764 243.307,269.568 242.823 C 269.474 242.589,269.395 242.664,269.380 243.003 M158.616 270.323 C 158.709 270.677,158.905 270.968,159.052 270.968 C 159.199 270.968,159.510 271.365,159.743 271.851 C 160.317 273.049,161.265 273.239,161.050 272.112 C 160.963 271.660,160.764 271.290,160.608 271.290 C 160.451 271.290,160.323 270.927,160.323 270.484 C 160.323 269.809,160.170 269.677,159.385 269.677 C 158.606 269.677,158.476 269.787,158.616 270.323 M242.581 269.935 C 242.315 270.024,242.024 270.187,241.935 270.298 C 241.847 270.408,241.384 270.747,240.907 271.050 C 240.242 271.473,239.700 272.903,240.204 272.903 C 240.700 272.903,241.398 272.340,241.618 271.760 C 241.789 271.310,242.277 270.944,242.884 270.811 C 243.427 270.691,243.871 270.476,243.871 270.331 C 243.871 269.962,243.155 269.742,242.581 269.935 M235.594 320.161 C 235.596 321.581,235.652 322.121,235.720 321.362 C 235.789 320.604,235.788 319.442,235.718 318.782 C 235.649 318.121,235.593 318.742,235.594 320.161 " stroke="none" fill="#d9b5f2" fill-rule="evenodd"></path><path id="path4" d="M159.462 75.000 C 159.462 75.266,159.592 75.484,159.750 75.484 C 159.909 75.484,159.955 75.619,159.852 75.784 C 159.750 75.949,159.821 76.180,160.010 76.297 C 160.249 76.444,160.251 76.633,160.018 76.913 C 159.834 77.136,159.770 77.404,159.876 77.510 C 160.131 77.765,160.066 100.422,159.801 103.627 C 159.630 105.691,159.452 106.279,158.771 107.014 L 157.947 107.903 148.570 107.992 C 138.050 108.091,138.541 107.989,135.835 110.629 L 134.032 112.387 133.938 122.380 C 133.824 134.477,134.183 133.604,129.100 134.156 C 127.275 134.354,122.811 134.516,119.181 134.516 C 115.551 134.516,112.581 134.632,112.581 134.774 C 112.581 134.916,112.073 135.215,111.452 135.440 C 110.831 135.664,109.597 136.555,108.710 137.419 L 107.097 138.990 107.097 148.882 C 107.097 157.197,107.017 158.935,106.593 159.790 C 106.143 160.699,102.959 163.548,102.395 163.548 C 101.869 163.548,100.641 165.266,100.596 166.065 C 100.569 166.544,100.513 167.081,100.472 167.258 C 100.431 167.435,100.380 168.122,100.360 168.784 L 100.323 169.987 93.790 170.092 L 87.258 170.196 94.301 170.179 C 100.889 170.162,101.373 170.121,101.801 169.535 C 102.052 169.191,102.258 169.032,102.258 169.182 C 102.258 169.332,102.543 169.197,102.891 168.882 C 103.239 168.567,103.748 168.394,104.020 168.499 C 104.333 168.619,104.516 168.507,104.516 168.197 C 104.516 167.926,104.661 167.794,104.839 167.903 C 105.016 168.013,105.161 167.876,105.161 167.600 C 105.161 167.145,105.541 166.951,106.217 167.061 C 106.354 167.083,106.558 166.645,106.670 166.087 C 106.828 165.297,107.148 164.956,108.111 164.552 C 108.791 164.266,109.350 163.846,109.352 163.619 C 109.353 163.392,109.573 163.122,109.839 163.020 C 110.105 162.918,110.323 162.559,110.323 162.224 C 110.323 161.888,110.454 161.613,110.614 161.613 C 111.417 161.613,111.613 159.163,111.613 149.115 C 111.613 138.921,111.630 138.645,112.258 138.481 C 112.613 138.388,112.903 138.184,112.903 138.027 C 112.903 137.869,116.827 137.739,121.694 137.736 C 132.780 137.727,134.442 137.515,136.059 135.898 L 137.258 134.700 137.355 123.891 C 137.443 114.129,137.506 113.031,138.011 112.561 C 138.492 112.113,140.018 112.013,148.904 111.846 C 164.626 111.551,163.364 113.273,163.442 92.016 C 163.508 73.987,163.582 74.516,160.998 74.516 C 159.848 74.516,159.462 74.638,159.462 75.000 M237.581 75.326 C 236.588 76.527,236.771 108.387,237.770 108.387 C 237.932 108.387,238.065 108.581,238.065 108.818 C 238.065 111.028,240.662 111.593,251.913 111.833 C 260.123 112.008,261.826 112.124,262.316 112.544 C 262.859 113.009,262.903 113.763,262.905 122.572 C 262.907 131.509,263.144 134.516,263.849 134.516 C 263.997 134.516,264.197 134.817,264.293 135.185 C 264.390 135.553,264.769 135.933,265.137 136.029 C 265.505 136.126,265.806 136.326,265.806 136.474 C 265.806 137.206,268.795 137.496,277.984 137.654 C 283.351 137.746,287.742 137.939,287.742 138.083 C 287.742 138.226,288.024 138.433,288.368 138.542 C 288.968 138.733,288.997 139.184,289.093 149.716 C 289.185 159.772,289.241 160.718,289.758 161.007 C 290.069 161.180,290.323 161.507,290.323 161.732 C 290.323 162.163,291.928 163.718,291.946 163.304 C 291.951 163.172,292.157 163.329,292.402 163.653 C 292.647 163.976,293.332 164.310,293.924 164.394 C 295.589 164.630,295.730 164.729,295.634 165.597 C 295.570 166.182,295.672 166.359,295.999 166.234 C 296.248 166.138,296.452 166.221,296.452 166.417 C 296.452 167.240,297.086 168.065,297.719 168.065 C 297.909 168.065,298.065 168.362,298.065 168.726 C 298.065 170.060,299.716 170.345,306.860 170.242 L 313.387 170.147 306.694 170.074 L 300.000 170.000 299.974 169.274 C 299.867 166.336,299.600 164.653,299.173 164.214 C 297.777 162.781,296.452 161.083,296.452 160.726 C 296.452 160.504,296.299 160.323,296.113 160.323 C 295.064 160.323,294.891 158.343,295.077 148.468 C 295.244 139.612,295.213 138.710,294.739 138.710 C 294.451 138.710,294.061 138.419,293.871 138.065 C 293.681 137.710,293.340 137.419,293.114 137.419 C 292.888 137.419,292.405 137.142,292.041 136.803 C 291.677 136.465,290.598 135.920,289.642 135.594 C 288.685 135.267,287.855 134.891,287.796 134.758 C 287.737 134.625,284.717 134.516,281.085 134.516 C 274.788 134.516,270.212 134.002,269.677 133.234 C 269.589 133.107,269.117 132.905,268.629 132.785 L 267.742 132.568 267.742 122.862 L 267.742 113.157 265.887 111.258 C 264.867 110.214,263.851 109.358,263.629 109.357 C 263.407 109.356,263.226 109.225,263.226 109.067 C 263.226 108.406,261.680 108.247,253.617 108.079 C 247.853 107.960,245.064 107.787,244.907 107.540 C 244.781 107.339,244.080 107.076,243.350 106.954 L 242.023 106.732 241.657 104.514 C 241.455 103.293,241.290 101.851,241.290 101.309 C 241.290 100.766,241.145 100.323,240.968 100.323 C 240.762 100.323,240.645 97.742,240.645 93.226 C 240.645 87.766,240.738 86.128,241.048 86.124 C 241.347 86.120,241.354 86.057,241.075 85.880 C 240.674 85.624,240.633 81.195,241.028 80.800 C 241.148 80.680,241.182 80.415,241.105 80.210 C 240.776 79.345,240.775 76.460,241.103 76.324 C 241.322 76.232,241.272 76.051,240.968 75.836 C 240.612 75.584,240.596 75.492,240.906 75.489 C 241.138 75.486,241.245 75.350,241.144 75.186 C 241.043 75.022,241.216 74.821,241.528 74.739 C 241.841 74.658,241.226 74.581,240.161 74.568 C 238.492 74.549,238.137 74.653,237.581 75.326 M163.548 133.226 C 163.548 133.403,163.265 133.548,162.918 133.548 C 161.371 133.548,159.377 135.025,159.362 136.183 C 159.358 136.478,159.173 136.781,158.952 136.855 C 158.642 136.958,158.527 139.475,158.455 147.650 L 158.362 158.311 157.367 158.511 C 156.819 158.620,155.808 158.710,155.121 158.710 C 154.433 158.710,153.871 158.855,153.871 159.032 C 153.871 159.238,151.241 159.355,146.626 159.355 C 142.641 159.355,138.271 159.520,136.914 159.722 L 134.447 160.089 132.014 162.490 L 129.582 164.892 129.549 174.785 C 129.513 185.735,129.372 184.932,131.694 187.069 C 132.181 187.518,132.581 188.011,132.581 188.164 C 132.581 188.651,137.400 193.234,138.254 193.559 C 138.705 193.731,142.248 193.871,146.127 193.871 C 151.437 193.871,153.285 193.973,153.606 194.286 C 153.840 194.514,154.943 194.973,156.056 195.307 C 158.536 196.050,158.348 195.272,158.459 205.254 C 158.517 210.439,158.669 213.331,158.891 213.480 C 159.079 213.606,159.412 214.525,159.630 215.521 C 160.057 217.471,161.512 219.432,162.823 219.826 C 163.222 219.945,163.548 220.179,163.548 220.344 C 163.548 220.529,177.731 220.645,200.161 220.645 C 220.298 220.645,236.774 220.535,236.774 220.401 C 236.774 220.267,237.363 219.973,238.082 219.749 C 239.528 219.297,241.226 217.763,241.868 216.326 C 242.098 215.814,242.642 215.113,243.078 214.770 C 243.514 214.427,243.871 213.940,243.871 213.686 C 243.871 213.433,244.002 213.226,244.162 213.226 C 244.958 213.226,245.286 210.827,245.462 203.710 L 245.645 196.290 246.904 195.081 L 248.163 193.871 254.646 193.869 C 260.614 193.868,263.548 193.565,263.548 192.953 C 263.548 192.819,264.043 192.532,264.647 192.313 C 265.251 192.095,265.980 191.557,266.267 191.119 C 266.554 190.681,266.993 190.323,267.242 190.323 C 267.492 190.323,267.888 190.133,268.122 189.901 C 268.357 189.670,269.011 189.208,269.577 188.876 C 270.374 188.407,270.737 187.849,271.190 186.396 C 271.511 185.365,271.883 184.520,272.016 184.519 C 272.149 184.517,272.258 180.161,272.258 174.839 C 272.258 168.602,272.143 165.161,271.935 165.161 C 271.758 165.161,271.613 164.883,271.613 164.542 C 271.613 163.096,269.581 160.968,268.200 160.968 C 267.948 160.968,267.742 160.834,267.742 160.671 C 267.742 159.972,264.228 159.605,256.048 159.450 C 251.302 159.360,247.419 159.168,247.419 159.024 C 247.419 158.879,246.984 158.665,246.452 158.548 L 245.484 158.336 245.484 148.705 C 245.484 143.361,245.347 138.713,245.176 138.263 C 244.817 137.320,242.990 135.484,242.411 135.484 C 242.193 135.484,241.815 135.187,241.572 134.824 C 241.268 134.371,240.496 134.043,239.113 133.782 C 238.004 133.572,237.097 133.289,237.097 133.152 C 237.097 133.015,220.548 132.903,200.323 132.903 C 176.022 132.903,163.548 133.013,163.548 133.226 M237.106 137.332 C 239.178 138.780,239.032 137.914,239.032 148.781 C 239.032 155.185,239.147 158.710,239.355 158.710 C 239.532 158.710,239.682 158.891,239.688 159.113 C 239.718 160.222,241.991 161.935,243.432 161.935 C 243.999 161.935,244.523 162.117,244.597 162.339 C 244.698 162.644,246.689 162.763,252.769 162.830 C 261.848 162.929,262.538 162.995,263.537 163.861 C 263.931 164.203,264.421 164.538,264.627 164.607 C 265.241 164.811,265.151 184.895,264.534 185.101 C 264.278 185.186,263.698 185.634,263.244 186.096 L 262.419 186.935 254.516 187.145 C 246.525 187.357,243.871 187.597,243.871 188.107 C 243.871 188.261,243.567 188.387,243.195 188.387 C 241.346 188.387,240.172 189.837,239.810 192.568 C 239.691 193.462,239.468 194.194,239.313 194.194 C 239.159 194.194,239.032 197.655,239.032 201.886 C 239.032 209.598,238.760 211.613,237.718 211.613 C 237.554 211.613,237.419 211.807,237.419 212.043 C 237.419 212.280,236.985 212.861,236.454 213.334 L 235.489 214.194 200.003 214.194 C 177.519 214.194,164.516 214.080,164.516 213.884 C 164.516 213.713,164.245 213.314,163.913 212.996 C 163.581 212.679,163.116 211.875,162.880 211.210 C 162.644 210.544,162.335 210.000,162.193 210.000 C 162.051 210.000,161.935 206.653,161.935 202.562 C 161.935 195.008,161.559 190.744,160.841 190.161 C 160.623 189.984,160.347 189.581,160.229 189.267 C 160.111 188.952,159.757 188.598,159.443 188.480 C 159.128 188.362,158.718 188.062,158.530 187.812 C 158.256 187.446,156.267 187.323,148.287 187.178 L 138.385 186.999 137.177 185.838 L 135.968 184.677 135.975 174.702 C 135.980 166.868,136.070 164.697,136.396 164.588 C 136.624 164.512,137.101 164.138,137.455 163.757 C 138.082 163.085,138.397 163.059,148.303 162.886 C 155.805 162.755,158.540 162.606,158.635 162.322 C 158.705 162.109,158.933 161.931,159.140 161.925 C 159.656 161.910,160.692 160.984,161.371 159.931 C 161.878 159.145,161.935 158.028,161.935 149.033 L 161.935 139.011 163.054 137.892 L 164.172 136.774 200.240 136.774 C 233.894 136.774,236.361 136.812,237.106 137.332 M76.053 164.700 C 75.930 164.823,75.964 165.176,76.129 165.484 C 76.294 165.792,76.337 166.136,76.225 166.248 C 76.113 166.360,76.269 166.452,76.570 166.452 C 76.989 166.452,77.050 166.317,76.829 165.887 C 76.669 165.577,76.480 165.132,76.408 164.899 C 76.336 164.666,76.176 164.577,76.053 164.700 M324.043 165.758 C 323.782 166.945,322.017 168.722,320.583 169.242 C 319.982 169.459,319.770 169.639,320.097 169.653 C 321.917 169.730,325.408 165.945,324.424 164.962 C 324.331 164.869,324.160 165.227,324.043 165.758 M77.366 167.788 C 77.936 168.345,78.489 168.715,78.595 168.610 C 78.700 168.504,78.997 168.629,79.255 168.886 C 79.513 169.144,80.040 169.348,80.426 169.340 C 80.945 169.329,80.744 169.124,79.656 168.557 C 78.846 168.135,77.994 167.561,77.762 167.282 C 77.530 167.003,77.113 166.774,76.835 166.774 C 76.488 166.774,76.656 167.093,77.366 167.788 M318.387 169.334 C 318.387 169.501,317.915 169.695,317.339 169.767 C 316.391 169.884,316.417 169.902,317.608 169.948 C 318.586 169.987,318.925 169.876,318.925 169.516 C 318.925 169.250,318.804 169.032,318.656 169.032 C 318.508 169.032,318.387 169.168,318.387 169.334 M101.290 211.896 C 101.290 212.576,101.133 212.903,100.806 212.903 C 100.408 212.903,100.331 213.428,100.371 215.887 C 100.397 217.528,100.479 218.484,100.551 218.011 C 100.702 217.023,102.215 215.239,102.531 215.676 C 102.648 215.838,108.190 216.012,115.000 216.067 C 126.236 216.158,129.355 216.370,129.355 217.046 C 129.355 217.168,130.065 217.520,130.932 217.828 C 132.315 218.319,132.534 218.524,132.716 219.493 C 132.830 220.101,133.101 220.657,133.317 220.729 C 133.604 220.825,133.761 222.975,133.902 228.736 C 134.093 236.558,134.241 237.834,135.058 238.652 C 135.292 238.887,135.484 239.270,135.484 239.505 C 135.484 239.740,136.137 240.624,136.935 241.469 C 137.734 242.314,138.387 243.128,138.387 243.277 C 138.387 243.426,141.036 243.547,144.274 243.546 C 151.539 243.543,158.387 244.108,158.387 244.710 C 158.387 244.941,158.575 245.245,158.804 245.387 C 159.702 245.942,159.995 248.290,160.078 255.577 C 160.134 260.499,160.279 263.003,160.517 263.157 C 160.713 263.284,161.059 264.379,161.285 265.591 C 161.518 266.839,161.888 267.868,162.138 267.964 C 162.382 268.057,162.581 268.312,162.581 268.530 C 162.581 268.747,163.008 269.307,163.531 269.772 L 164.481 270.619 174.579 270.713 C 185.928 270.818,184.967 270.640,189.372 273.460 C 190.148 273.956,191.009 274.194,192.033 274.194 L 193.548 274.194 193.622 280.887 L 193.696 287.581 193.790 280.983 C 193.851 276.729,194.008 274.308,194.231 274.170 C 194.422 274.053,194.194 273.860,193.725 273.742 C 193.257 273.625,192.735 273.614,192.566 273.719 C 192.397 273.823,192.258 273.665,192.258 273.367 C 192.258 272.921,192.172 272.896,191.774 273.226 C 191.440 273.503,191.290 273.515,191.290 273.265 C 191.290 273.066,191.112 272.940,190.893 272.984 C 190.652 273.033,190.374 272.433,190.183 271.452 C 190.011 270.565,189.681 269.647,189.451 269.413 C 189.221 269.179,188.943 268.626,188.832 268.184 C 188.705 267.678,188.466 267.444,188.186 267.551 C 187.933 267.648,187.742 267.518,187.742 267.248 C 187.742 266.987,187.464 266.496,187.124 266.156 C 186.784 265.816,186.590 265.453,186.694 265.349 C 186.797 265.246,186.640 265.161,186.344 265.161 C 186.048 265.161,185.806 265.040,185.806 264.892 C 185.806 264.453,185.427 264.432,174.771 264.302 L 164.542 264.176 164.332 263.056 C 164.216 262.440,164.011 261.935,163.875 261.935 C 163.739 261.935,163.548 257.980,163.451 253.145 C 163.238 242.606,163.034 241.485,160.936 239.387 C 159.027 237.479,159.733 237.590,148.770 237.472 C 139.703 237.375,138.648 237.309,138.471 236.827 C 138.363 236.532,138.082 236.174,137.847 236.032 C 137.509 235.829,137.419 233.994,137.417 227.323 C 137.415 216.451,137.256 215.420,135.273 213.437 C 133.845 212.009,133.408 211.832,130.687 211.577 C 127.448 211.273,104.327 211.170,103.862 211.457 C 103.690 211.564,103.544 211.461,103.538 211.229 C 103.532 210.968,103.346 211.046,103.054 211.433 C 102.748 211.838,102.581 211.904,102.581 211.621 C 102.581 211.380,102.485 211.278,102.368 211.395 C 102.252 211.512,101.961 211.446,101.723 211.248 C 101.377 210.961,101.290 211.090,101.290 211.896 M281.774 211.329 C 271.093 211.513,267.849 211.716,267.419 212.227 C 267.331 212.333,266.726 212.665,266.076 212.966 C 265.240 213.352,264.772 213.848,264.479 214.659 C 264.251 215.290,263.966 215.806,263.847 215.806 C 263.377 215.806,263.135 218.928,262.943 227.487 C 262.756 235.796,262.698 236.457,262.123 236.877 C 261.639 237.231,259.427 237.364,251.902 237.491 C 243.584 237.632,242.229 237.725,241.772 238.182 C 241.482 238.472,241.064 238.710,240.843 238.710 C 240.133 238.710,238.416 240.966,238.190 242.196 C 238.070 242.851,237.811 243.491,237.615 243.617 C 237.375 243.772,237.201 246.840,237.083 252.972 C 236.918 261.629,236.764 263.226,236.095 263.226 C 235.936 263.226,235.806 263.444,235.806 263.710 C 235.806 264.124,234.819 264.197,228.952 264.217 C 218.946 264.252,216.143 264.373,215.725 264.791 C 215.521 264.995,215.094 265.161,214.774 265.161 C 214.455 265.161,214.194 265.280,214.194 265.425 C 214.194 265.570,213.683 266.260,213.059 266.958 C 211.828 268.334,210.645 270.383,210.645 271.139 C 210.645 271.400,210.500 271.613,210.323 271.613 C 210.145 271.613,210.000 272.194,210.000 272.903 C 210.000 274.428,209.965 274.417,211.494 273.379 C 212.155 272.931,213.032 272.480,213.444 272.376 C 213.856 272.273,214.194 272.066,214.194 271.916 C 214.194 271.234,217.319 270.935,226.409 270.746 L 236.206 270.542 237.619 269.067 C 238.396 268.256,239.032 267.347,239.032 267.049 C 239.032 266.750,239.181 266.456,239.364 266.395 C 240.235 266.104,240.638 262.694,240.641 255.565 C 240.643 251.617,240.767 248.387,240.916 248.387 C 241.065 248.387,241.373 247.824,241.600 247.136 C 241.978 245.989,242.170 245.838,243.910 245.311 C 244.953 244.995,245.806 244.639,245.806 244.520 C 245.806 243.931,249.612 243.548,255.477 243.548 L 261.872 243.548 263.355 242.044 C 264.171 241.216,264.839 240.439,264.839 240.317 C 264.839 240.194,265.202 239.703,265.645 239.224 C 266.089 238.745,266.452 238.154,266.452 237.910 C 266.452 237.665,266.706 237.212,267.016 236.902 C 267.515 236.404,267.592 235.475,267.678 228.944 L 267.776 221.551 270.487 218.840 L 273.198 216.129 281.196 216.080 C 294.847 215.997,296.601 215.956,296.994 215.711 C 297.203 215.580,297.472 215.631,297.591 215.823 C 297.710 216.016,298.006 216.097,298.250 216.003 C 298.886 215.759,299.633 217.566,299.768 219.677 C 299.830 220.653,299.908 219.909,299.940 218.024 C 299.979 215.831,299.843 214.147,299.564 213.347 C 299.325 212.659,299.192 211.915,299.269 211.694 C 299.352 211.452,299.106 211.274,298.656 211.249 C 296.461 211.128,292.276 211.148,281.774 211.329 M325.559 242.258 C 325.559 242.879,325.625 243.133,325.706 242.823 C 325.787 242.512,325.787 242.004,325.706 241.694 C 325.625 241.383,325.559 241.637,325.559 242.258 M193.009 290.829 C 192.695 293.365,192.569 293.694,191.495 294.795 C 190.850 295.455,190.325 296.134,190.328 296.304 C 190.330 296.489,190.428 296.484,190.569 296.290 C 190.700 296.113,191.087 295.813,191.430 295.624 C 191.773 295.434,192.209 294.999,192.398 294.656 C 192.587 294.313,192.848 293.953,192.977 293.856 C 193.233 293.665,193.736 288.065,193.498 288.065 C 193.417 288.065,193.198 289.309,193.009 290.829 " stroke="none" fill="#b386e0" fill-rule="evenodd"></path></g></svg>